<svg width="391" height="669" viewBox="0 0 391 669" fill="none" xmlns="http://www.w3.org/2000/svg">
<g filter="url(#filter0_i_6_109)">
<rect x="243" y="352" width="64" height="48" rx="4" transform="rotate(-90 243 352)" fill="#8B5CF6"/>
</g>
<g filter="url(#filter1_i_6_109)">
<rect x="243" y="280" width="64" height="48" rx="4" transform="rotate(-90 243 280)" fill="#7C3AED"/>
</g>
<g filter="url(#filter2_i_6_109)">
<rect x="243" y="208" width="64" height="48" rx="4" transform="rotate(-90 243 208)" fill="#6D28D9"/>
</g>
<g filter="url(#filter3_i_6_109)">
<rect x="243" y="136" width="64" height="48" rx="4" transform="rotate(-90 243 136)" fill="#5B21B6"/>
</g>
<g filter="url(#filter4_i_6_109)">
<rect x="243" y="64.0003" width="64" height="48" rx="4" transform="rotate(-90 243 64.0003)" fill="#4C1D95"/>
</g>
<g filter="url(#filter5_i_6_109)">
<rect x="317" y="352" width="64" height="48" rx="4" transform="rotate(-90 317 352)" fill="#A78BFA"/>
</g>
<g filter="url(#filter6_i_6_109)">
<path d="M321 280C318.791 280 317 278.209 317 276V220C317 217.791 318.791 216 321 216H361C363.209 216 365 217.791 365 220V276C365 278.209 363.209 280 361 280H321Z" fill="#C4B5FD"/>
</g>
<g filter="url(#filter7_i_6_109)">
<path d="M321 208C318.791 208 317 206.209 317 204V148C317 145.791 318.791 144 321 144H361C363.209 144 365 145.791 365 148V204C365 206.209 363.209 208 361 208H321Z" fill="#DDD6FE"/>
</g>
<g filter="url(#filter8_i_6_109)">
<rect x="317" y="136" width="64" height="48" rx="4" transform="rotate(-90 317 136)" fill="#EDE9FE"/>
</g>
<g filter="url(#filter9_i_6_109)">
<rect x="317" y="64" width="64" height="48" rx="4" transform="rotate(-90 317 64)" fill="#F5F3FF"/>
</g>
<rect x="10.5" y="280.5" width="219" height="59" rx="3.5" stroke="#7C3AED"/>
<path d="M76.54 317.24C75.5133 317.24 74.6133 317.06 73.84 316.7C73.0667 316.34 72.46 315.827 72.02 315.16C71.5933 314.493 71.3733 313.7 71.36 312.78H73.6C73.6133 313.527 73.8733 314.16 74.38 314.68C74.8867 315.2 75.6 315.46 76.52 315.46C77.3333 315.46 77.9667 315.267 78.42 314.88C78.8867 314.48 79.12 313.973 79.12 313.36C79.12 312.867 79.0067 312.467 78.78 312.16C78.5667 311.853 78.2667 311.6 77.88 311.4C77.5067 311.2 77.0733 311.02 76.58 310.86C76.0867 310.7 75.5667 310.527 75.02 310.34C73.94 309.98 73.1267 309.513 72.58 308.94C72.0467 308.367 71.78 307.613 71.78 306.68C71.7667 305.893 71.9467 305.207 72.32 304.62C72.7067 304.033 73.24 303.58 73.92 303.26C74.6133 302.927 75.42 302.76 76.34 302.76C77.2467 302.76 78.04 302.927 78.72 303.26C79.4133 303.593 79.9533 304.06 80.34 304.66C80.7267 305.247 80.9267 305.933 80.94 306.72H78.7C78.7 306.36 78.6067 306.02 78.42 305.7C78.2333 305.367 77.96 305.093 77.6 304.88C77.24 304.667 76.8 304.56 76.28 304.56C75.6133 304.547 75.06 304.713 74.62 305.06C74.1933 305.407 73.98 305.887 73.98 306.5C73.98 307.047 74.14 307.467 74.46 307.76C74.78 308.053 75.22 308.3 75.78 308.5C76.34 308.687 76.98 308.907 77.7 309.16C78.3933 309.387 79.0133 309.66 79.56 309.98C80.1067 310.3 80.54 310.72 80.86 311.24C81.1933 311.76 81.36 312.42 81.36 313.22C81.36 313.927 81.18 314.587 80.82 315.2C80.46 315.8 79.92 316.293 79.2 316.68C78.48 317.053 77.5933 317.24 76.54 317.24ZM87.8378 317.24C86.8645 317.24 85.9978 317.027 85.2378 316.6C84.4911 316.16 83.9045 315.553 83.4778 314.78C83.0511 314.007 82.8378 313.107 82.8378 312.08C82.8378 311.04 83.0445 310.127 83.4578 309.34C83.8845 308.553 84.4711 307.94 85.2178 307.5C85.9778 307.06 86.8578 306.84 87.8578 306.84C88.8311 306.84 89.6778 307.06 90.3978 307.5C91.1178 307.927 91.6778 308.5 92.0778 309.22C92.4778 309.94 92.6778 310.733 92.6778 311.6C92.6778 311.733 92.6711 311.88 92.6578 312.04C92.6578 312.187 92.6511 312.353 92.6378 312.54H84.9178C84.9845 313.5 85.2978 314.233 85.8578 314.74C86.4311 315.233 87.0911 315.48 87.8378 315.48C88.4378 315.48 88.9378 315.347 89.3378 315.08C89.7511 314.8 90.0578 314.427 90.2578 313.96H92.3778C92.1111 314.893 91.5778 315.673 90.7778 316.3C89.9911 316.927 89.0111 317.24 87.8378 317.24ZM87.8378 308.58C87.1311 308.58 86.5045 308.793 85.9578 309.22C85.4111 309.633 85.0778 310.26 84.9578 311.1H90.5578C90.5178 310.327 90.2445 309.713 89.7378 309.26C89.2311 308.807 88.5978 308.58 87.8378 308.58ZM99.1775 317.24C98.2042 317.24 97.3308 317.02 96.5575 316.58C95.7975 316.14 95.1975 315.533 94.7575 314.76C94.3308 313.973 94.1175 313.067 94.1175 312.04C94.1175 311.013 94.3308 310.113 94.7575 309.34C95.1975 308.553 95.7975 307.94 96.5575 307.5C97.3308 307.06 98.2042 306.84 99.1775 306.84C100.404 306.84 101.431 307.16 102.258 307.8C103.098 308.44 103.638 309.307 103.878 310.4H101.658C101.524 309.853 101.231 309.427 100.778 309.12C100.324 308.813 99.7908 308.66 99.1775 308.66C98.6575 308.66 98.1775 308.793 97.7375 309.06C97.2975 309.313 96.9442 309.693 96.6775 310.2C96.4108 310.693 96.2775 311.307 96.2775 312.04C96.2775 312.773 96.4108 313.393 96.6775 313.9C96.9442 314.393 97.2975 314.773 97.7375 315.04C98.1775 315.307 98.6575 315.44 99.1775 315.44C99.7908 315.44 100.324 315.287 100.778 314.98C101.231 314.673 101.524 314.24 101.658 313.68H103.878C103.651 314.747 103.118 315.607 102.278 316.26C101.438 316.913 100.404 317.24 99.1775 317.24ZM110.417 317.24C109.47 317.24 108.617 317.027 107.857 316.6C107.11 316.16 106.517 315.553 106.077 314.78C105.637 313.993 105.417 313.08 105.417 312.04C105.417 311 105.637 310.093 106.077 309.32C106.53 308.533 107.137 307.927 107.897 307.5C108.657 307.06 109.503 306.84 110.437 306.84C111.383 306.84 112.23 307.06 112.977 307.5C113.737 307.927 114.337 308.533 114.777 309.32C115.23 310.093 115.457 311 115.457 312.04C115.457 313.08 115.23 313.993 114.777 314.78C114.337 315.553 113.737 316.16 112.977 316.6C112.217 317.027 111.363 317.24 110.417 317.24ZM110.417 315.42C110.923 315.42 111.39 315.293 111.817 315.04C112.257 314.787 112.61 314.413 112.877 313.92C113.143 313.413 113.277 312.787 113.277 312.04C113.277 311.293 113.143 310.673 112.877 310.18C112.623 309.673 112.277 309.293 111.837 309.04C111.41 308.787 110.943 308.66 110.437 308.66C109.93 308.66 109.457 308.787 109.017 309.04C108.59 309.293 108.243 309.673 107.977 310.18C107.71 310.673 107.577 311.293 107.577 312.04C107.577 312.787 107.71 313.413 107.977 313.92C108.243 314.413 108.59 314.787 109.017 315.04C109.443 315.293 109.91 315.42 110.417 315.42ZM117.349 317V307.08H119.229L119.389 308.82C119.696 308.207 120.143 307.727 120.729 307.38C121.329 307.02 122.016 306.84 122.789 306.84C123.989 306.84 124.929 307.213 125.609 307.96C126.303 308.707 126.649 309.82 126.649 311.3V317H124.549V311.52C124.549 309.6 123.763 308.64 122.189 308.64C121.403 308.64 120.749 308.92 120.229 309.48C119.723 310.04 119.469 310.84 119.469 311.88V317H117.349ZM133.266 317.24C132.306 317.24 131.46 317.013 130.726 316.56C129.993 316.107 129.42 315.487 129.006 314.7C128.593 313.913 128.386 313.02 128.386 312.02C128.386 311.02 128.593 310.133 129.006 309.36C129.42 308.573 129.993 307.96 130.726 307.52C131.473 307.067 132.326 306.84 133.286 306.84C134.073 306.84 134.76 306.993 135.346 307.3C135.946 307.607 136.413 308.04 136.746 308.6V302.6H138.866V317H136.966L136.746 315.46C136.426 315.927 135.986 316.34 135.426 316.7C134.866 317.06 134.146 317.24 133.266 317.24ZM133.646 315.4C134.553 315.4 135.293 315.087 135.866 314.46C136.453 313.833 136.746 313.027 136.746 312.04C136.746 311.04 136.453 310.233 135.866 309.62C135.293 308.993 134.553 308.68 133.646 308.68C132.74 308.68 131.993 308.993 131.406 309.62C130.82 310.233 130.526 311.04 130.526 312.04C130.526 312.693 130.66 313.273 130.926 313.78C131.193 314.287 131.56 314.687 132.026 314.98C132.506 315.26 133.046 315.4 133.646 315.4ZM144.499 317.24C143.659 317.24 142.966 317.1 142.419 316.82C141.873 316.54 141.466 316.173 141.199 315.72C140.933 315.253 140.799 314.747 140.799 314.2C140.799 313.24 141.173 312.48 141.919 311.92C142.666 311.36 143.733 311.08 145.119 311.08H147.719V310.9C147.719 310.127 147.506 309.547 147.079 309.16C146.666 308.773 146.126 308.58 145.459 308.58C144.873 308.58 144.359 308.727 143.919 309.02C143.493 309.3 143.233 309.72 143.139 310.28H141.019C141.086 309.56 141.326 308.947 141.739 308.44C142.166 307.92 142.699 307.527 143.339 307.26C143.993 306.98 144.706 306.84 145.479 306.84C146.866 306.84 147.939 307.207 148.699 307.94C149.459 308.66 149.839 309.647 149.839 310.9V317H147.999L147.819 315.3C147.539 315.847 147.133 316.307 146.599 316.68C146.066 317.053 145.366 317.24 144.499 317.24ZM144.919 315.52C145.493 315.52 145.973 315.387 146.359 315.12C146.759 314.84 147.066 314.473 147.279 314.02C147.506 313.567 147.646 313.067 147.699 312.52H145.339C144.499 312.52 143.899 312.667 143.539 312.96C143.193 313.253 143.019 313.62 143.019 314.06C143.019 314.513 143.186 314.873 143.519 315.14C143.866 315.393 144.333 315.52 144.919 315.52ZM151.911 317V307.08H153.811L153.991 308.96C154.338 308.307 154.818 307.793 155.431 307.42C156.058 307.033 156.811 306.84 157.691 306.84V309.06H157.111C156.524 309.06 155.998 309.16 155.531 309.36C155.078 309.547 154.711 309.873 154.431 310.34C154.164 310.793 154.031 311.427 154.031 312.24V317H151.911ZM160.269 321.4L162.649 316.18H162.069L158.149 307.08H160.449L163.489 314.42L166.669 307.08H168.909L162.509 321.4H160.269Z" fill="#7C3AED"/>
<rect x="10.5007" y="377.898" width="353.641" height="47" rx="3.5" transform="rotate(-0.076171 10.5007 377.898)" stroke="#7C3AED"/>
<path d="M30.5482 401.911L27.5092 401.915L27.5075 400.688L30.5466 400.684C31.1351 400.683 31.6116 400.589 31.9759 400.401C32.3402 400.213 32.6055 399.952 32.7717 399.619C32.9432 399.285 33.0286 398.905 33.028 398.478C33.0275 398.087 32.9411 397.72 32.7688 397.376C32.6016 397.033 32.3357 396.757 31.9708 396.549C31.6059 396.336 31.1292 396.23 30.5407 396.231L27.8532 396.234L27.8667 406.375L26.3589 406.377L26.3437 395.002L30.539 394.997C31.3984 394.995 32.1252 395.143 32.7193 395.439C33.3135 395.735 33.7645 396.146 34.0725 396.672C34.3805 397.192 34.5349 397.788 34.5358 398.46C34.5368 399.189 34.384 399.812 34.0774 400.328C33.7708 400.844 33.3208 401.238 32.7274 401.509C32.134 401.776 31.4076 401.909 30.5482 401.911ZM37.7882 394.362L37.8042 406.362L36.351 406.364L36.3351 394.364L37.7882 394.362ZM45.1069 404.907L45.1011 400.555C45.1007 400.222 45.0326 399.933 44.8969 399.688C44.7663 399.439 44.5681 399.246 44.3023 399.111C44.0365 398.976 43.7083 398.909 43.3177 398.909C42.9531 398.91 42.6329 398.973 42.357 399.098C42.0863 399.223 41.873 399.388 41.717 399.591C41.5663 399.794 41.491 400.013 41.4913 400.248L40.046 400.25C40.0456 399.947 40.1234 399.648 40.2792 399.351C40.4351 399.054 40.6587 398.785 40.95 398.545C41.2466 398.3 41.6005 398.107 42.0117 397.966C42.4282 397.819 42.8917 397.746 43.4021 397.745C44.0167 397.744 44.5585 397.848 45.0275 398.055C45.5017 398.263 45.8719 398.578 46.1381 398.999C46.4095 399.416 46.5456 399.939 46.5465 400.569L46.5517 404.506C46.5521 404.788 46.5759 405.087 46.6232 405.405C46.6757 405.722 46.7516 405.996 46.8509 406.225L46.851 406.35L45.3432 406.352C45.2701 406.185 45.2125 405.964 45.1705 405.688C45.1284 405.407 45.1072 405.146 45.1069 404.907ZM45.352 401.227L45.369 402.242L43.9081 402.244C43.4966 402.245 43.1295 402.279 42.8066 402.347C42.4838 402.41 42.2131 402.507 41.9945 402.638C41.7759 402.768 41.6095 402.932 41.4952 403.13C41.3808 403.323 41.3239 403.55 41.3242 403.81C41.3246 404.076 41.3848 404.318 41.5049 404.537C41.6249 404.755 41.8049 404.929 42.0446 405.059C42.2896 405.184 42.5891 405.246 42.9433 405.246C43.386 405.245 43.7765 405.151 44.1148 404.963C44.4531 404.775 44.721 404.545 44.9186 404.274C45.1213 404.003 45.2304 403.74 45.2456 403.485L45.8638 404.179C45.8276 404.398 45.729 404.64 45.5679 404.906C45.4067 405.172 45.1909 405.428 44.9204 405.673C44.6551 405.913 44.3377 406.114 43.9681 406.276C43.6037 406.432 43.1924 406.511 42.734 406.512C42.1611 406.512 41.6584 406.401 41.2258 406.178C40.7984 405.954 40.4647 405.655 40.2246 405.281C39.9897 404.901 39.872 404.476 39.8713 404.008C39.8707 403.554 39.9587 403.156 40.1354 402.812C40.312 402.463 40.5668 402.173 40.8998 401.944C41.2329 401.709 41.6337 401.531 42.1023 401.411C42.5709 401.29 43.0942 401.23 43.6723 401.229L45.352 401.227ZM52.209 405.311C52.5528 405.311 52.8704 405.24 53.1619 405.099C53.4533 404.958 53.6927 404.765 53.8798 404.52C54.067 404.27 54.1734 403.986 54.199 403.668L55.574 403.666C55.5486 404.166 55.38 404.633 55.0681 405.065C54.7613 405.493 54.3582 405.84 53.8585 406.106C53.3589 406.367 52.8096 406.498 52.2106 406.499C51.5752 406.5 51.0203 406.389 50.5461 406.165C50.077 405.942 49.686 405.635 49.373 405.245C49.0652 404.855 48.8328 404.407 48.6759 403.902C48.5242 403.392 48.4479 402.853 48.4472 402.285L48.4467 401.957C48.446 401.389 48.5208 400.853 48.6712 400.347C48.8267 399.837 49.0579 399.386 49.3647 398.995C49.6767 398.604 50.0669 398.296 50.5353 398.071C51.009 397.847 51.5635 397.734 52.1989 397.733C52.8604 397.732 53.4387 397.867 53.9339 398.137C54.429 398.402 54.8175 398.766 55.0994 399.229C55.3864 399.687 55.5434 400.208 55.5702 400.791L54.1952 400.793C54.1687 400.444 54.0693 400.129 53.8971 399.848C53.73 399.567 53.5006 399.344 53.2087 399.177C52.922 399.006 52.5859 398.92 52.2005 398.921C51.7578 398.921 51.3855 399.01 51.0837 399.188C50.787 399.36 50.5504 399.595 50.3737 399.892C50.2022 400.184 50.0776 400.51 50 400.869C49.9275 401.223 49.8916 401.585 49.8921 401.955L49.8925 402.283C49.893 402.653 49.9299 403.018 50.0033 403.377C50.0767 403.736 50.1995 404.062 50.3718 404.353C50.5493 404.644 50.7866 404.878 51.0837 405.055C51.386 405.227 51.7611 405.312 52.209 405.311ZM60.7106 406.488C60.1221 406.488 59.5881 406.39 59.1086 406.193C58.6344 405.99 58.2252 405.707 57.8809 405.343C57.5419 404.979 57.2809 404.547 57.098 404.047C56.915 403.547 56.8231 403.001 56.8224 402.407L56.8219 402.079C56.821 401.391 56.9218 400.779 57.1242 400.242C57.3266 399.7 57.602 399.242 57.9505 398.866C58.2989 398.491 58.6944 398.206 59.1368 398.013C59.5793 397.82 60.0375 397.723 60.5114 397.722C61.1156 397.721 61.6366 397.825 62.0744 398.033C62.5173 398.24 62.8797 398.532 63.1615 398.906C63.4432 399.276 63.6521 399.713 63.7882 400.218C63.9243 400.718 63.9927 401.265 63.9935 401.858L63.9944 402.507L57.6819 402.515L57.6803 401.335L62.5475 401.329L62.5473 401.22C62.526 400.845 62.4474 400.48 62.3115 400.126C62.1808 399.772 61.9721 399.481 61.6853 399.252C61.3986 399.023 61.0078 398.909 60.513 398.91C60.1849 398.91 59.8829 398.981 59.607 399.122C59.3312 399.258 59.0945 399.461 58.8969 399.732C58.6994 400.003 58.5462 400.334 58.4373 400.725C58.3284 401.116 58.2744 401.566 58.275 402.077L58.2755 402.405C58.276 402.806 58.3312 403.184 58.441 403.538C58.5561 403.886 58.7206 404.193 58.9345 404.459C59.1536 404.724 59.4169 404.932 59.7243 405.083C60.037 405.233 60.3913 405.308 60.7871 405.308C61.2976 405.307 61.7297 405.202 62.0836 404.994C62.4375 404.785 62.747 404.506 63.0122 404.156L63.8881 404.851C63.7062 405.127 63.4748 405.39 63.1938 405.641C62.9129 405.891 62.5668 406.095 62.1556 406.251C61.7496 406.408 61.2679 406.487 60.7106 406.488ZM67.1163 394.323L67.1323 406.323L65.6869 406.325L65.671 394.325L67.1163 394.323ZM66.7825 401.776L66.1809 401.754C66.1853 401.176 66.2705 400.642 66.4365 400.152C66.6026 399.657 66.8364 399.227 67.138 398.862C67.4396 398.497 67.7986 398.215 68.215 398.017C68.6366 397.813 69.1026 397.711 69.613 397.71C70.0297 397.71 70.4047 397.766 70.7382 397.881C71.0717 397.99 71.3558 398.166 71.5905 398.411C71.8304 398.655 72.0131 398.973 72.1386 399.363C72.2641 399.748 72.3273 400.22 72.328 400.777L72.3354 406.316L70.8823 406.318L70.8749 400.763C70.8743 400.321 70.8087 399.966 70.6781 399.701C70.5476 399.43 70.3572 399.235 70.1071 399.116C69.8569 398.991 69.5495 398.929 69.1849 398.93C68.8256 398.93 68.4975 399.006 68.2009 399.157C67.9094 399.309 67.6571 399.517 67.4439 399.783C67.2359 400.049 67.0722 400.354 66.9529 400.698C66.8388 401.037 66.782 401.396 66.7825 401.776ZM74.1111 402.181L74.1109 402.001C74.1101 401.392 74.1979 400.826 74.3743 400.305C74.5506 399.779 74.8052 399.323 75.1381 398.937C75.4709 398.546 75.8741 398.244 76.3478 398.029C76.8215 397.81 77.3526 397.7 77.9411 397.699C78.5349 397.698 79.0689 397.807 79.5431 398.025C80.0226 398.238 80.4292 398.54 80.7631 398.93C81.1021 399.315 81.3605 399.77 81.5383 400.296C81.7161 400.817 81.8054 401.381 81.8062 401.991L81.8064 402.171C81.8072 402.78 81.7195 403.345 81.5431 403.866C81.3667 404.387 81.1095 404.843 80.7714 405.234C80.4386 405.62 80.0354 405.923 79.5617 406.142C79.0932 406.356 78.5621 406.464 77.9684 406.465C77.3746 406.466 76.8406 406.359 76.3664 406.147C75.8922 405.928 75.4855 405.627 75.1464 405.242C74.8126 404.852 74.5568 404.396 74.379 403.876C74.2012 403.355 74.1119 402.79 74.1111 402.181ZM75.5562 401.999L75.5564 402.179C75.557 402.601 75.607 402.999 75.7065 403.374C75.8059 403.744 75.9548 404.072 76.1531 404.358C76.3566 404.644 76.6095 404.87 76.9118 405.036C77.2141 405.197 77.5658 405.278 77.9668 405.277C78.3626 405.277 78.7089 405.196 79.0056 405.034C79.3074 404.867 79.5571 404.64 79.7546 404.353C79.9522 404.066 80.1002 403.738 80.1986 403.368C80.3023 402.993 80.3539 402.594 80.3533 402.172L80.3531 401.993C80.3525 401.576 80.2999 401.183 80.1953 400.813C80.0958 400.438 79.9443 400.108 79.7408 399.822C79.5425 399.53 79.2922 399.301 78.9899 399.135C78.6928 398.969 78.3437 398.886 77.9427 398.887C77.5469 398.887 77.198 398.971 76.8961 399.138C76.5995 399.305 76.3498 399.535 76.1471 399.827C75.9495 400.113 75.8015 400.444 75.7031 400.819C75.6046 401.189 75.5556 401.583 75.5562 401.999ZM85.1788 394.299L85.1947 406.299L83.7416 406.301L83.7257 394.301L85.1788 394.299ZM92.841 404.648L92.8272 394.289L94.2803 394.287L94.2963 406.287L92.9682 406.289L92.841 404.648ZM87.1502 402.163L87.15 401.999C87.1491 401.354 87.2264 400.768 87.382 400.241C87.5428 399.71 87.7687 399.254 88.0599 398.873C88.3562 398.493 88.7074 398.2 89.1134 397.997C89.5246 397.788 89.9828 397.683 90.488 397.682C91.0192 397.682 91.4829 397.775 91.879 397.962C92.2803 398.144 92.6192 398.411 92.8957 398.765C93.1774 399.114 93.3993 399.535 93.5614 400.03C93.7235 400.524 93.8363 401.084 93.8996 401.709L93.9005 402.428C93.8441 403.048 93.7328 403.605 93.5668 404.1C93.406 404.595 93.1852 405.017 92.9044 405.367C92.6289 405.716 92.2907 405.985 91.8899 406.173C91.4891 406.356 91.0205 406.447 90.484 406.448C89.9892 406.449 89.5359 406.343 89.1242 406.13C88.7177 405.917 88.3657 405.618 88.0683 405.233C87.7761 404.848 87.549 404.395 87.3868 403.874C87.2299 403.348 87.151 402.778 87.1502 402.163ZM88.6031 401.997L88.6033 402.162C88.6039 402.583 88.6461 402.979 88.7299 403.349C88.8189 403.719 88.9548 404.044 89.1374 404.325C89.3201 404.606 89.5522 404.827 89.8336 404.988C90.1151 405.144 90.4511 405.222 90.8417 405.221C91.3209 405.22 91.714 405.118 92.021 404.915C92.3333 404.711 92.5829 404.443 92.77 404.109C92.957 403.776 93.1024 403.413 93.206 403.023L93.2035 401.14C93.1406 400.853 93.0491 400.577 92.929 400.312C92.814 400.041 92.6627 399.802 92.4749 399.594C92.2923 399.381 92.0655 399.212 91.7945 399.087C91.5287 398.962 91.2136 398.9 90.849 398.901C90.4531 398.901 90.1121 398.985 89.8259 399.152C89.5448 399.314 89.3134 399.538 89.1314 399.825C88.9495 400.106 88.8145 400.435 88.7265 400.81C88.6437 401.18 88.6025 401.576 88.6031 401.997ZM100.054 406.435C99.4658 406.436 98.9318 406.338 98.4524 406.141C97.9781 405.938 97.5689 405.655 97.2247 405.291C96.8856 404.927 96.6246 404.495 96.4417 403.995C96.2587 403.495 96.1669 402.948 96.1661 402.355L96.1656 402.026C96.1647 401.339 96.2655 400.727 96.4679 400.19C96.6703 399.648 96.9457 399.189 97.2942 398.814C97.6426 398.439 98.0381 398.154 98.4805 397.961C98.923 397.768 99.3812 397.671 99.8552 397.67C100.459 397.669 100.98 397.773 101.418 397.98C101.861 398.188 102.223 398.479 102.505 398.854C102.787 399.223 102.996 399.661 103.132 400.166C103.268 400.665 103.336 401.212 103.337 401.806L103.338 402.454L97.0256 402.463L97.024 401.283L101.891 401.277L101.891 401.167C101.87 400.792 101.791 400.428 101.655 400.074C101.525 399.72 101.316 399.428 101.029 399.2C100.742 398.971 100.352 398.857 99.8567 398.857C99.5286 398.858 99.2266 398.929 98.9508 399.07C98.6749 399.205 98.4382 399.409 98.2406 399.68C98.0431 399.951 97.8899 400.282 97.781 400.673C97.6722 401.064 97.6181 401.514 97.6188 402.025L97.6192 402.353C97.6197 402.754 97.6749 403.131 97.7848 403.485C97.8998 403.834 98.0643 404.141 98.2782 404.406C98.4973 404.672 98.7606 404.88 99.0681 405.03C99.3808 405.181 99.735 405.256 100.131 405.256C100.641 405.255 101.073 405.15 101.427 404.941C101.781 404.733 102.091 404.453 102.356 404.104L103.232 404.798C103.05 405.075 102.818 405.338 102.538 405.588C102.257 405.839 101.911 406.042 101.499 406.199C101.093 406.356 100.612 406.435 100.054 406.435ZM106.466 399.146L106.476 406.271L105.031 406.272L105.019 397.819L106.426 397.818L106.466 399.146ZM109.105 397.767L109.099 399.111C108.979 399.085 108.865 399.069 108.755 399.064C108.651 399.054 108.531 399.049 108.396 399.049C108.063 399.05 107.769 399.102 107.513 399.207C107.258 399.311 107.042 399.457 106.866 399.645C106.689 399.833 106.548 400.057 106.445 400.317C106.346 400.573 106.281 400.854 106.25 401.161L105.844 401.396C105.844 400.886 105.893 400.407 105.991 399.959C106.095 399.511 106.253 399.115 106.466 398.771C106.679 398.421 106.95 398.15 107.277 397.957C107.61 397.759 108.006 397.659 108.465 397.659C108.569 397.658 108.688 397.671 108.824 397.697C108.959 397.718 109.053 397.741 109.105 397.767ZM117.949 397.802L117.951 398.912L113.38 398.918L113.379 397.808L117.949 397.802ZM114.923 395.752L116.368 395.75L116.379 404.164C116.38 404.45 116.424 404.666 116.513 404.812C116.602 404.958 116.717 405.054 116.857 405.101C116.998 405.147 117.149 405.17 117.31 405.17C117.43 405.17 117.555 405.159 117.685 405.138C117.821 405.112 117.922 405.091 117.99 405.076L117.999 406.255C117.885 406.292 117.734 406.326 117.546 406.357C117.364 406.394 117.143 406.413 116.882 406.413C116.528 406.413 116.203 406.344 115.906 406.203C115.609 406.063 115.371 405.829 115.194 405.501C115.021 405.168 114.935 404.72 114.934 404.158L114.923 395.752ZM123.164 406.405C122.575 406.405 122.041 406.307 121.562 406.11C121.087 405.907 120.678 405.624 120.334 405.26C119.995 404.896 119.734 404.464 119.551 403.964C119.368 403.464 119.276 402.918 119.275 402.324L119.275 401.996C119.274 401.308 119.375 400.696 119.577 400.159C119.78 399.617 120.055 399.159 120.404 398.783C120.752 398.408 121.147 398.123 121.59 397.93C122.032 397.737 122.491 397.64 122.965 397.639C123.569 397.638 124.09 397.742 124.527 397.95C124.97 398.157 125.333 398.449 125.615 398.823C125.896 399.193 126.105 399.63 126.241 400.135C126.377 400.635 126.446 401.182 126.447 401.775L126.447 402.424L120.135 402.432L120.133 401.252L125.001 401.246L125 401.137C124.979 400.762 124.9 400.397 124.765 400.043C124.634 399.689 124.425 399.398 124.138 399.169C123.852 398.94 123.461 398.826 122.966 398.827C122.638 398.827 122.336 398.898 122.06 399.039C121.784 399.175 121.548 399.378 121.35 399.649C121.152 399.92 120.999 400.251 120.89 400.642C120.782 401.033 120.727 401.483 120.728 401.994L120.729 402.322C120.729 402.723 120.784 403.101 120.894 403.455C121.009 403.803 121.174 404.11 121.388 404.376C121.607 404.641 121.87 404.849 122.177 405C122.49 405.15 122.844 405.225 123.24 405.225C123.751 405.224 124.183 405.119 124.537 404.911C124.891 404.702 125.2 404.423 125.465 404.073L126.341 404.768C126.159 405.044 125.928 405.307 125.647 405.558C125.366 405.808 125.02 406.012 124.609 406.168C124.203 406.325 123.721 406.404 123.164 406.405ZM129.105 397.787L130.961 400.863L132.832 397.782L134.527 397.78L131.767 401.956L134.624 406.233L132.953 406.235L130.995 403.066L129.046 406.241L127.367 406.243L130.205 401.958L127.441 397.79L129.105 397.787ZM139.605 397.773L139.607 398.883L135.036 398.889L135.035 397.779L139.605 397.773ZM136.579 395.723L138.024 395.721L138.036 404.135C138.036 404.421 138.081 404.637 138.169 404.783C138.258 404.929 138.373 405.025 138.513 405.072C138.654 405.118 138.805 405.142 138.967 405.141C139.086 405.141 139.211 405.131 139.342 405.11C139.477 405.083 139.579 405.063 139.646 405.047L139.656 406.226C139.541 406.263 139.39 406.297 139.203 406.329C139.02 406.365 138.799 406.384 138.539 406.384C138.184 406.385 137.859 406.315 137.562 406.175C137.265 406.034 137.027 405.8 136.85 405.472C136.678 405.139 136.591 404.691 136.59 404.129L136.579 395.723ZM146.71 394.217L146.726 406.217L145.281 406.219L145.265 394.219L146.71 394.217ZM146.376 401.671L145.775 401.648C145.779 401.07 145.864 400.536 146.03 400.046C146.196 399.551 146.43 399.121 146.732 398.756C147.033 398.391 147.392 398.109 147.809 397.911C148.23 397.707 148.696 397.605 149.207 397.604C149.623 397.604 149.998 397.661 150.332 397.775C150.665 397.884 150.949 398.06 151.184 398.305C151.424 398.549 151.607 398.867 151.732 399.257C151.858 399.643 151.921 400.114 151.922 400.671L151.929 406.21L150.476 406.212L150.469 400.657C150.468 400.215 150.402 399.861 150.272 399.595C150.141 399.324 149.951 399.129 149.701 399.01C149.451 398.885 149.143 398.823 148.779 398.824C148.419 398.824 148.091 398.9 147.795 399.052C147.503 399.203 147.251 399.412 147.038 399.678C146.83 399.943 146.666 400.248 146.547 400.592C146.432 400.931 146.376 401.29 146.376 401.671ZM157.601 406.359C157.013 406.36 156.479 406.261 155.999 406.064C155.525 405.862 155.116 405.578 154.771 405.214C154.432 404.85 154.171 404.418 153.989 403.918C153.806 403.419 153.714 402.872 153.713 402.278L153.712 401.95C153.712 401.262 153.812 400.65 154.015 400.114C154.217 399.572 154.493 399.113 154.841 398.738C155.189 398.362 155.585 398.078 156.027 397.884C156.47 397.691 156.928 397.594 157.402 397.593C158.006 397.593 158.527 397.696 158.965 397.904C159.408 398.112 159.77 398.403 160.052 398.777C160.334 399.147 160.543 399.584 160.679 400.089C160.815 400.589 160.883 401.136 160.884 401.729L160.885 402.378L154.572 402.386L154.571 401.207L159.438 401.2L159.438 401.091C159.417 400.716 159.338 400.351 159.202 399.997C159.071 399.643 158.863 399.352 158.576 399.123C158.289 398.894 157.898 398.78 157.404 398.781C157.075 398.781 156.773 398.852 156.498 398.993C156.222 399.129 155.985 399.332 155.787 399.603C155.59 399.875 155.437 400.205 155.328 400.596C155.219 400.987 155.165 401.438 155.166 401.948L155.166 402.276C155.167 402.677 155.222 403.055 155.332 403.409C155.447 403.758 155.611 404.065 155.825 404.33C156.044 404.595 156.307 404.803 156.615 404.954C156.928 405.105 157.282 405.18 157.678 405.179C158.188 405.178 158.62 405.074 158.974 404.865C159.328 404.656 159.638 404.377 159.903 404.028L160.779 404.722C160.597 404.998 160.365 405.261 160.084 405.512C159.803 405.762 159.457 405.966 159.046 406.123C158.64 406.279 158.158 406.358 157.601 406.359ZM164.013 399.069L164.023 406.194L162.577 406.196L162.566 397.743L163.972 397.741L164.013 399.069ZM166.652 397.691L166.646 399.034C166.526 399.008 166.412 398.993 166.302 398.988C166.198 398.978 166.078 398.973 165.943 398.973C165.61 398.973 165.315 399.026 165.06 399.13C164.805 399.235 164.589 399.381 164.412 399.569C164.236 399.756 164.095 399.98 163.991 400.241C163.893 400.496 163.828 400.778 163.797 401.085L163.391 401.32C163.391 400.809 163.439 400.33 163.538 399.882C163.641 399.434 163.8 399.038 164.013 398.694C164.226 398.345 164.496 398.074 164.824 397.88C165.157 397.682 165.553 397.583 166.011 397.582C166.116 397.582 166.235 397.595 166.371 397.621C166.506 397.641 166.6 397.665 166.652 397.691ZM171.351 406.341C170.763 406.341 170.229 406.243 169.749 406.046C169.275 405.843 168.866 405.56 168.521 405.196C168.182 404.832 167.921 404.4 167.738 403.9C167.556 403.4 167.464 402.854 167.463 402.26L167.462 401.932C167.462 401.244 167.562 400.632 167.765 400.095C167.967 399.553 168.243 399.095 168.591 398.719C168.939 398.344 169.335 398.059 169.777 397.866C170.22 397.673 170.678 397.576 171.152 397.575C171.756 397.574 172.277 397.678 172.715 397.886C173.158 398.093 173.52 398.385 173.802 398.759C174.084 399.129 174.293 399.566 174.429 400.071C174.565 400.571 174.633 401.117 174.634 401.711L174.635 402.36L168.322 402.368L168.321 401.188L173.188 401.182L173.188 401.073C173.167 400.698 173.088 400.333 172.952 399.979C172.821 399.625 172.613 399.334 172.326 399.105C172.039 398.876 171.648 398.762 171.154 398.763C170.825 398.763 170.523 398.834 170.248 398.975C169.972 399.111 169.735 399.314 169.537 399.585C169.34 399.856 169.187 400.187 169.078 400.578C168.969 400.969 168.915 401.419 168.916 401.93L168.916 402.258C168.917 402.659 168.972 403.036 169.082 403.39C169.197 403.739 169.361 404.046 169.575 404.312C169.794 404.577 170.057 404.785 170.365 404.936C170.678 405.086 171.032 405.161 171.428 405.161C171.938 405.16 172.37 405.055 172.724 404.847C173.078 404.638 173.388 404.359 173.653 404.009L174.529 404.704C174.347 404.98 174.115 405.243 173.834 405.494C173.553 405.744 173.207 405.947 172.796 406.104C172.39 406.261 171.908 406.34 171.351 406.341Z" fill="#676879"/>
<path d="M31.8672 471.625V483H30.3828V471.625H31.8672ZM35.5234 471.625V472.859H26.7344V471.625H35.5234ZM41.0859 481.555V477.203C41.0859 476.87 41.0182 476.581 40.8828 476.336C40.7526 476.086 40.5547 475.893 40.2891 475.758C40.0234 475.622 39.6953 475.555 39.3047 475.555C38.9401 475.555 38.6198 475.617 38.3438 475.742C38.0729 475.867 37.8594 476.031 37.7031 476.234C37.5521 476.438 37.4766 476.656 37.4766 476.891H36.0312C36.0312 476.589 36.1094 476.289 36.2656 475.992C36.4219 475.695 36.6458 475.427 36.9375 475.188C37.2344 474.943 37.5885 474.75 38 474.609C38.4167 474.464 38.8802 474.391 39.3906 474.391C40.0052 474.391 40.5469 474.495 41.0156 474.703C41.4896 474.911 41.8594 475.227 42.125 475.648C42.3958 476.065 42.5312 476.589 42.5312 477.219V481.156C42.5312 481.438 42.5547 481.737 42.6016 482.055C42.6536 482.372 42.7292 482.646 42.8281 482.875V483H41.3203C41.2474 482.833 41.1901 482.612 41.1484 482.336C41.1068 482.055 41.0859 481.794 41.0859 481.555ZM41.3359 477.875L41.3516 478.891H39.8906C39.4792 478.891 39.112 478.924 38.7891 478.992C38.4661 479.055 38.1953 479.151 37.9766 479.281C37.7578 479.411 37.5911 479.576 37.4766 479.773C37.362 479.966 37.3047 480.193 37.3047 480.453C37.3047 480.719 37.3646 480.961 37.4844 481.18C37.6042 481.398 37.7839 481.573 38.0234 481.703C38.2682 481.828 38.5677 481.891 38.9219 481.891C39.3646 481.891 39.7552 481.797 40.0938 481.609C40.4323 481.422 40.7005 481.193 40.8984 480.922C41.1016 480.651 41.2109 480.388 41.2266 480.133L41.8438 480.828C41.8073 481.047 41.7083 481.289 41.5469 481.555C41.3854 481.82 41.1693 482.076 40.8984 482.32C40.6328 482.56 40.3151 482.76 39.9453 482.922C39.5807 483.078 39.1693 483.156 38.7109 483.156C38.138 483.156 37.6354 483.044 37.2031 482.82C36.776 482.596 36.4427 482.297 36.2031 481.922C35.9688 481.542 35.8516 481.117 35.8516 480.648C35.8516 480.195 35.9401 479.797 36.1172 479.453C36.2943 479.104 36.5495 478.815 36.8828 478.586C37.2161 478.352 37.6172 478.174 38.0859 478.055C38.5547 477.935 39.0781 477.875 39.6562 477.875H41.3359ZM44.7969 471H46.25V481.359L46.125 483H44.7969V471ZM51.9609 478.703V478.867C51.9609 479.482 51.888 480.052 51.7422 480.578C51.5964 481.099 51.3828 481.552 51.1016 481.938C50.8203 482.323 50.4766 482.622 50.0703 482.836C49.6641 483.049 49.1979 483.156 48.6719 483.156C48.1354 483.156 47.6641 483.065 47.2578 482.883C46.8568 482.695 46.5182 482.427 46.2422 482.078C45.9661 481.729 45.7448 481.307 45.5781 480.812C45.4167 480.318 45.3047 479.76 45.2422 479.141V478.422C45.3047 477.797 45.4167 477.237 45.5781 476.742C45.7448 476.247 45.9661 475.826 46.2422 475.477C46.5182 475.122 46.8568 474.854 47.2578 474.672C47.6589 474.484 48.125 474.391 48.6562 474.391C49.1875 474.391 49.6589 474.495 50.0703 474.703C50.4818 474.906 50.8255 475.198 51.1016 475.578C51.3828 475.958 51.5964 476.414 51.7422 476.945C51.888 477.471 51.9609 478.057 51.9609 478.703ZM50.5078 478.867V478.703C50.5078 478.281 50.4688 477.885 50.3906 477.516C50.3125 477.141 50.1875 476.812 50.0156 476.531C49.8438 476.245 49.6172 476.021 49.3359 475.859C49.0547 475.693 48.7083 475.609 48.2969 475.609C47.9323 475.609 47.6146 475.672 47.3438 475.797C47.0781 475.922 46.8516 476.091 46.6641 476.305C46.4766 476.513 46.3229 476.753 46.2031 477.023C46.0885 477.289 46.0026 477.565 45.9453 477.852V479.734C46.0286 480.099 46.1641 480.451 46.3516 480.789C46.5443 481.122 46.7995 481.396 47.1172 481.609C47.4401 481.823 47.8385 481.93 48.3125 481.93C48.7031 481.93 49.0365 481.852 49.3125 481.695C49.5938 481.534 49.8203 481.312 49.9922 481.031C50.1693 480.75 50.2995 480.424 50.3828 480.055C50.4661 479.685 50.5078 479.289 50.5078 478.867ZM62.3516 471.562V483H60.9062V473.367L57.9922 474.43V473.125L62.125 471.562H62.3516Z" fill="#7C3AED"/>
<rect x="10" y="494" width="72" height="2" fill="#7C3AED"/>
<path d="M103.867 471.625V483H102.383V471.625H103.867ZM107.523 471.625V472.859H98.7344V471.625H107.523ZM113.086 481.555V477.203C113.086 476.87 113.018 476.581 112.883 476.336C112.753 476.086 112.555 475.893 112.289 475.758C112.023 475.622 111.695 475.555 111.305 475.555C110.94 475.555 110.62 475.617 110.344 475.742C110.073 475.867 109.859 476.031 109.703 476.234C109.552 476.438 109.477 476.656 109.477 476.891H108.031C108.031 476.589 108.109 476.289 108.266 475.992C108.422 475.695 108.646 475.427 108.938 475.188C109.234 474.943 109.589 474.75 110 474.609C110.417 474.464 110.88 474.391 111.391 474.391C112.005 474.391 112.547 474.495 113.016 474.703C113.49 474.911 113.859 475.227 114.125 475.648C114.396 476.065 114.531 476.589 114.531 477.219V481.156C114.531 481.438 114.555 481.737 114.602 482.055C114.654 482.372 114.729 482.646 114.828 482.875V483H113.32C113.247 482.833 113.19 482.612 113.148 482.336C113.107 482.055 113.086 481.794 113.086 481.555ZM113.336 477.875L113.352 478.891H111.891C111.479 478.891 111.112 478.924 110.789 478.992C110.466 479.055 110.195 479.151 109.977 479.281C109.758 479.411 109.591 479.576 109.477 479.773C109.362 479.966 109.305 480.193 109.305 480.453C109.305 480.719 109.365 480.961 109.484 481.18C109.604 481.398 109.784 481.573 110.023 481.703C110.268 481.828 110.568 481.891 110.922 481.891C111.365 481.891 111.755 481.797 112.094 481.609C112.432 481.422 112.701 481.193 112.898 480.922C113.102 480.651 113.211 480.388 113.227 480.133L113.844 480.828C113.807 481.047 113.708 481.289 113.547 481.555C113.385 481.82 113.169 482.076 112.898 482.32C112.633 482.56 112.315 482.76 111.945 482.922C111.581 483.078 111.169 483.156 110.711 483.156C110.138 483.156 109.635 483.044 109.203 482.82C108.776 482.596 108.443 482.297 108.203 481.922C107.969 481.542 107.852 481.117 107.852 480.648C107.852 480.195 107.94 479.797 108.117 479.453C108.294 479.104 108.549 478.815 108.883 478.586C109.216 478.352 109.617 478.174 110.086 478.055C110.555 477.935 111.078 477.875 111.656 477.875H113.336ZM116.797 471H118.25V481.359L118.125 483H116.797V471ZM123.961 478.703V478.867C123.961 479.482 123.888 480.052 123.742 480.578C123.596 481.099 123.383 481.552 123.102 481.938C122.82 482.323 122.477 482.622 122.07 482.836C121.664 483.049 121.198 483.156 120.672 483.156C120.135 483.156 119.664 483.065 119.258 482.883C118.857 482.695 118.518 482.427 118.242 482.078C117.966 481.729 117.745 481.307 117.578 480.812C117.417 480.318 117.305 479.76 117.242 479.141V478.422C117.305 477.797 117.417 477.237 117.578 476.742C117.745 476.247 117.966 475.826 118.242 475.477C118.518 475.122 118.857 474.854 119.258 474.672C119.659 474.484 120.125 474.391 120.656 474.391C121.188 474.391 121.659 474.495 122.07 474.703C122.482 474.906 122.826 475.198 123.102 475.578C123.383 475.958 123.596 476.414 123.742 476.945C123.888 477.471 123.961 478.057 123.961 478.703ZM122.508 478.867V478.703C122.508 478.281 122.469 477.885 122.391 477.516C122.312 477.141 122.188 476.812 122.016 476.531C121.844 476.245 121.617 476.021 121.336 475.859C121.055 475.693 120.708 475.609 120.297 475.609C119.932 475.609 119.615 475.672 119.344 475.797C119.078 475.922 118.852 476.091 118.664 476.305C118.477 476.513 118.323 476.753 118.203 477.023C118.089 477.289 118.003 477.565 117.945 477.852V479.734C118.029 480.099 118.164 480.451 118.352 480.789C118.544 481.122 118.799 481.396 119.117 481.609C119.44 481.823 119.839 481.93 120.312 481.93C120.703 481.93 121.036 481.852 121.312 481.695C121.594 481.534 121.82 481.312 121.992 481.031C122.169 480.75 122.299 480.424 122.383 480.055C122.466 479.685 122.508 479.289 122.508 478.867ZM137.055 481.812V483H129.609V481.961L133.336 477.812C133.794 477.302 134.148 476.87 134.398 476.516C134.654 476.156 134.831 475.836 134.93 475.555C135.034 475.268 135.086 474.977 135.086 474.68C135.086 474.305 135.008 473.966 134.852 473.664C134.701 473.357 134.477 473.112 134.18 472.93C133.883 472.747 133.523 472.656 133.102 472.656C132.596 472.656 132.174 472.755 131.836 472.953C131.503 473.146 131.253 473.417 131.086 473.766C130.919 474.115 130.836 474.516 130.836 474.969H129.391C129.391 474.328 129.531 473.742 129.812 473.211C130.094 472.68 130.51 472.258 131.062 471.945C131.615 471.628 132.294 471.469 133.102 471.469C133.82 471.469 134.435 471.596 134.945 471.852C135.456 472.102 135.846 472.456 136.117 472.914C136.393 473.367 136.531 473.898 136.531 474.508C136.531 474.841 136.474 475.18 136.359 475.523C136.25 475.862 136.096 476.201 135.898 476.539C135.706 476.878 135.479 477.211 135.219 477.539C134.964 477.867 134.69 478.19 134.398 478.508L131.352 481.812H137.055Z" fill="#323338"/>
<rect x="82" y="495" width="72" height="1" fill="#C5C7D0"/>
<path d="M175.867 471.625V483H174.383V471.625H175.867ZM179.523 471.625V472.859H170.734V471.625H179.523ZM185.086 481.555V477.203C185.086 476.87 185.018 476.581 184.883 476.336C184.753 476.086 184.555 475.893 184.289 475.758C184.023 475.622 183.695 475.555 183.305 475.555C182.94 475.555 182.62 475.617 182.344 475.742C182.073 475.867 181.859 476.031 181.703 476.234C181.552 476.438 181.477 476.656 181.477 476.891H180.031C180.031 476.589 180.109 476.289 180.266 475.992C180.422 475.695 180.646 475.427 180.938 475.188C181.234 474.943 181.589 474.75 182 474.609C182.417 474.464 182.88 474.391 183.391 474.391C184.005 474.391 184.547 474.495 185.016 474.703C185.49 474.911 185.859 475.227 186.125 475.648C186.396 476.065 186.531 476.589 186.531 477.219V481.156C186.531 481.438 186.555 481.737 186.602 482.055C186.654 482.372 186.729 482.646 186.828 482.875V483H185.32C185.247 482.833 185.19 482.612 185.148 482.336C185.107 482.055 185.086 481.794 185.086 481.555ZM185.336 477.875L185.352 478.891H183.891C183.479 478.891 183.112 478.924 182.789 478.992C182.466 479.055 182.195 479.151 181.977 479.281C181.758 479.411 181.591 479.576 181.477 479.773C181.362 479.966 181.305 480.193 181.305 480.453C181.305 480.719 181.365 480.961 181.484 481.18C181.604 481.398 181.784 481.573 182.023 481.703C182.268 481.828 182.568 481.891 182.922 481.891C183.365 481.891 183.755 481.797 184.094 481.609C184.432 481.422 184.701 481.193 184.898 480.922C185.102 480.651 185.211 480.388 185.227 480.133L185.844 480.828C185.807 481.047 185.708 481.289 185.547 481.555C185.385 481.82 185.169 482.076 184.898 482.32C184.633 482.56 184.315 482.76 183.945 482.922C183.581 483.078 183.169 483.156 182.711 483.156C182.138 483.156 181.635 483.044 181.203 482.82C180.776 482.596 180.443 482.297 180.203 481.922C179.969 481.542 179.852 481.117 179.852 480.648C179.852 480.195 179.94 479.797 180.117 479.453C180.294 479.104 180.549 478.815 180.883 478.586C181.216 478.352 181.617 478.174 182.086 478.055C182.555 477.935 183.078 477.875 183.656 477.875H185.336ZM188.797 471H190.25V481.359L190.125 483H188.797V471ZM195.961 478.703V478.867C195.961 479.482 195.888 480.052 195.742 480.578C195.596 481.099 195.383 481.552 195.102 481.938C194.82 482.323 194.477 482.622 194.07 482.836C193.664 483.049 193.198 483.156 192.672 483.156C192.135 483.156 191.664 483.065 191.258 482.883C190.857 482.695 190.518 482.427 190.242 482.078C189.966 481.729 189.745 481.307 189.578 480.812C189.417 480.318 189.305 479.76 189.242 479.141V478.422C189.305 477.797 189.417 477.237 189.578 476.742C189.745 476.247 189.966 475.826 190.242 475.477C190.518 475.122 190.857 474.854 191.258 474.672C191.659 474.484 192.125 474.391 192.656 474.391C193.188 474.391 193.659 474.495 194.07 474.703C194.482 474.906 194.826 475.198 195.102 475.578C195.383 475.958 195.596 476.414 195.742 476.945C195.888 477.471 195.961 478.057 195.961 478.703ZM194.508 478.867V478.703C194.508 478.281 194.469 477.885 194.391 477.516C194.312 477.141 194.188 476.812 194.016 476.531C193.844 476.245 193.617 476.021 193.336 475.859C193.055 475.693 192.708 475.609 192.297 475.609C191.932 475.609 191.615 475.672 191.344 475.797C191.078 475.922 190.852 476.091 190.664 476.305C190.477 476.513 190.323 476.753 190.203 477.023C190.089 477.289 190.003 477.565 189.945 477.852V479.734C190.029 480.099 190.164 480.451 190.352 480.789C190.544 481.122 190.799 481.396 191.117 481.609C191.44 481.823 191.839 481.93 192.312 481.93C192.703 481.93 193.036 481.852 193.312 481.695C193.594 481.534 193.82 481.312 193.992 481.031C194.169 480.75 194.299 480.424 194.383 480.055C194.466 479.685 194.508 479.289 194.508 478.867ZM209.055 481.812V483H201.609V481.961L205.336 477.812C205.794 477.302 206.148 476.87 206.398 476.516C206.654 476.156 206.831 475.836 206.93 475.555C207.034 475.268 207.086 474.977 207.086 474.68C207.086 474.305 207.008 473.966 206.852 473.664C206.701 473.357 206.477 473.112 206.18 472.93C205.883 472.747 205.523 472.656 205.102 472.656C204.596 472.656 204.174 472.755 203.836 472.953C203.503 473.146 203.253 473.417 203.086 473.766C202.919 474.115 202.836 474.516 202.836 474.969H201.391C201.391 474.328 201.531 473.742 201.812 473.211C202.094 472.68 202.51 472.258 203.062 471.945C203.615 471.628 204.294 471.469 205.102 471.469C205.82 471.469 206.435 471.596 206.945 471.852C207.456 472.102 207.846 472.456 208.117 472.914C208.393 473.367 208.531 473.898 208.531 474.508C208.531 474.841 208.474 475.18 208.359 475.523C208.25 475.862 208.096 476.201 207.898 476.539C207.706 476.878 207.479 477.211 207.219 477.539C206.964 477.867 206.69 478.19 206.398 478.508L203.352 481.812H209.055Z" fill="#323338"/>
<rect x="154" y="495" width="72" height="1" fill="#C5C7D0"/>
<rect x="324" y="466" width="41" height="24" rx="12" fill="#7C3AED"/>
<path fill-rule="evenodd" clip-rule="evenodd" d="M353 487C357.971 487 362 482.971 362 478C362 473.029 357.971 469 353 469C348.029 469 344 473.029 344 478C344 482.971 348.029 487 353 487Z" fill="white"/>
<rect x="311" y="490" width="41" height="24" rx="12" transform="rotate(-180 311 490)" fill="white"/>
<rect x="311" y="490" width="41" height="24" rx="12" transform="rotate(-180 311 490)" stroke="#7C3AED"/>
<path fill-rule="evenodd" clip-rule="evenodd" d="M282 469C277.029 469 273 473.029 273 478C273 482.971 277.029 487 282 487C286.971 487 291 482.971 291 478C291 473.029 286.971 469 282 469Z" fill="#7C3AED"/>
<path fill-rule="evenodd" clip-rule="evenodd" d="M23.4697 546.53L24 546L23.4697 545.47C23.1768 545.763 23.1768 546.237 23.4697 546.53ZM25.0607 546L31.5303 539.53C31.8232 539.237 31.8232 538.763 31.5303 538.47C31.2374 538.177 30.7626 538.177 30.4697 538.47L23.4697 545.47C23.4696 545.47 23.4697 545.47 24 546C23.4697 546.53 23.4696 546.53 23.4697 546.53L30.4697 553.53C30.7626 553.823 31.2374 553.823 31.5303 553.53C31.8232 553.237 31.8232 552.763 31.5303 552.47L25.0607 546Z" fill="#7C3AED"/>
<path d="M50.8223 546.345H48.2998L48.2861 545.285H50.5762C50.9544 545.285 51.2848 545.221 51.5674 545.094C51.8499 544.966 52.0687 544.784 52.2236 544.547C52.3831 544.305 52.4629 544.018 52.4629 543.686C52.4629 543.321 52.3923 543.025 52.251 542.797C52.1143 542.564 51.9023 542.396 51.6152 542.291C51.3327 542.182 50.9727 542.127 50.5352 542.127H48.5938V551H47.2744V541.047H50.5352C51.0456 541.047 51.5013 541.099 51.9023 541.204C52.3034 541.304 52.6429 541.464 52.9209 541.683C53.2035 541.897 53.4176 542.17 53.5635 542.503C53.7093 542.836 53.7822 543.234 53.7822 543.699C53.7822 544.109 53.6774 544.481 53.4678 544.813C53.2581 545.142 52.9665 545.41 52.5928 545.62C52.2236 545.83 51.7907 545.964 51.2939 546.023L50.8223 546.345ZM50.7607 551H47.7803L48.5254 549.927H50.7607C51.18 549.927 51.5355 549.854 51.8271 549.708C52.1234 549.562 52.349 549.357 52.5039 549.093C52.6589 548.824 52.7363 548.507 52.7363 548.143C52.7363 547.773 52.6702 547.454 52.5381 547.186C52.4059 546.917 52.1986 546.709 51.916 546.563C51.6335 546.418 51.2689 546.345 50.8223 546.345H48.9424L48.9561 545.285H51.5264L51.8066 545.668C52.2852 545.709 52.6908 545.846 53.0234 546.078C53.3561 546.306 53.609 546.598 53.7822 546.953C53.96 547.309 54.0488 547.701 54.0488 548.129C54.0488 548.749 53.9121 549.273 53.6387 549.701C53.3698 550.125 52.9893 550.449 52.4971 550.672C52.0049 550.891 51.4261 551 50.7607 551ZM60.167 549.735V545.928C60.167 545.636 60.1077 545.383 59.9893 545.169C59.8753 544.95 59.7021 544.782 59.4697 544.663C59.2373 544.545 58.9502 544.485 58.6084 544.485C58.2894 544.485 58.0091 544.54 57.7676 544.649C57.5306 544.759 57.3438 544.902 57.207 545.08C57.0749 545.258 57.0088 545.449 57.0088 545.654H55.7441C55.7441 545.39 55.8125 545.128 55.9492 544.868C56.0859 544.608 56.2819 544.374 56.5371 544.164C56.7969 543.95 57.1068 543.781 57.4668 543.658C57.8314 543.531 58.237 543.467 58.6836 543.467C59.2214 543.467 59.6953 543.558 60.1055 543.74C60.5202 543.923 60.8438 544.198 61.0762 544.567C61.3132 544.932 61.4316 545.39 61.4316 545.941V549.387C61.4316 549.633 61.4521 549.895 61.4932 550.173C61.5387 550.451 61.6048 550.69 61.6914 550.891V551H60.3721C60.3083 550.854 60.2581 550.66 60.2217 550.419C60.1852 550.173 60.167 549.945 60.167 549.735ZM60.3857 546.516L60.3994 547.404H59.1211C58.7611 547.404 58.4398 547.434 58.1572 547.493C57.8747 547.548 57.6377 547.632 57.4463 547.746C57.2549 547.86 57.109 548.004 57.0088 548.177C56.9085 548.345 56.8584 548.544 56.8584 548.771C56.8584 549.004 56.9108 549.216 57.0156 549.407C57.1204 549.599 57.2777 549.751 57.4873 549.865C57.7015 549.975 57.9635 550.029 58.2734 550.029C58.6608 550.029 59.0026 549.947 59.2988 549.783C59.5951 549.619 59.8298 549.419 60.0029 549.182C60.1807 548.945 60.2764 548.715 60.29 548.491L60.8301 549.1C60.7982 549.291 60.7116 549.503 60.5703 549.735C60.429 549.968 60.2399 550.191 60.0029 550.405C59.7705 550.615 59.4925 550.79 59.1689 550.932C58.8499 551.068 58.4899 551.137 58.0889 551.137C57.5876 551.137 57.1478 551.039 56.7695 550.843C56.3958 550.647 56.1042 550.385 55.8945 550.057C55.6895 549.724 55.5869 549.353 55.5869 548.942C55.5869 548.546 55.6644 548.197 55.8193 547.896C55.9743 547.591 56.1976 547.338 56.4893 547.138C56.7809 546.933 57.1318 546.778 57.542 546.673C57.9521 546.568 58.4102 546.516 58.916 546.516H60.3857ZM66.3809 550.098C66.6816 550.098 66.9596 550.036 67.2148 549.913C67.4701 549.79 67.6797 549.621 67.8438 549.407C68.0078 549.188 68.1012 548.94 68.124 548.662H69.3271C69.3044 549.1 69.1562 549.507 68.8828 549.886C68.6139 550.259 68.2607 550.562 67.8232 550.795C67.3857 551.023 66.9049 551.137 66.3809 551.137C65.8249 551.137 65.3395 551.039 64.9248 550.843C64.5146 550.647 64.1729 550.378 63.8994 550.036C63.6305 549.694 63.4277 549.302 63.291 548.86C63.1589 548.414 63.0928 547.942 63.0928 547.445V547.158C63.0928 546.661 63.1589 546.192 63.291 545.75C63.4277 545.303 63.6305 544.909 63.8994 544.567C64.1729 544.226 64.5146 543.957 64.9248 543.761C65.3395 543.565 65.8249 543.467 66.3809 543.467C66.9596 543.467 67.4655 543.585 67.8984 543.822C68.3314 544.055 68.6709 544.374 68.917 544.779C69.1676 545.18 69.3044 545.636 69.3271 546.146H68.124C68.1012 545.841 68.0146 545.565 67.8643 545.319C67.7184 545.073 67.5179 544.877 67.2627 544.731C67.012 544.581 66.7181 544.506 66.3809 544.506C65.9935 544.506 65.6676 544.583 65.4033 544.738C65.1436 544.889 64.9362 545.094 64.7812 545.354C64.6309 545.609 64.5215 545.894 64.4531 546.208C64.3893 546.518 64.3574 546.835 64.3574 547.158V547.445C64.3574 547.769 64.3893 548.088 64.4531 548.402C64.5169 548.717 64.624 549.002 64.7744 549.257C64.9294 549.512 65.1367 549.717 65.3965 549.872C65.6608 550.022 65.9889 550.098 66.3809 550.098ZM72.0205 540.5V551H70.749V540.5H72.0205ZM76.5391 543.604L73.3125 547.056L71.5078 548.929L71.4053 547.582L72.6973 546.037L74.9941 543.604H76.5391ZM75.3838 551L72.7451 547.473L73.4014 546.345L76.874 551H75.3838Z" fill="#7C3AED"/>
<circle cx="88" cy="546" r="3" fill="#C5C7D0"/>
<circle cx="102" cy="546" r="3" fill="#C5C7D0"/>
<circle cx="117" cy="546" r="4" fill="#7C3AED"/>
<circle cx="132" cy="546" r="3" fill="#C5C7D0"/>
<circle cx="146" cy="546" r="3" fill="#C5C7D0"/>
<path d="M165.84 541.047V551H164.514L159.503 543.323V551H158.184V541.047H159.503L164.534 548.744V541.047H165.84ZM171.056 551.137C170.541 551.137 170.074 551.05 169.654 550.877C169.24 550.699 168.882 550.451 168.581 550.132C168.285 549.813 168.057 549.435 167.897 548.997C167.738 548.56 167.658 548.081 167.658 547.562V547.274C167.658 546.673 167.747 546.137 167.925 545.668C168.103 545.194 168.344 544.793 168.649 544.465C168.955 544.137 169.301 543.888 169.688 543.72C170.076 543.551 170.477 543.467 170.892 543.467C171.42 543.467 171.876 543.558 172.259 543.74C172.646 543.923 172.963 544.178 173.209 544.506C173.455 544.829 173.637 545.212 173.756 545.654C173.874 546.092 173.934 546.57 173.934 547.09V547.657H168.41V546.625H172.669V546.529C172.651 546.201 172.582 545.882 172.464 545.572C172.35 545.262 172.168 545.007 171.917 544.807C171.666 544.606 171.325 544.506 170.892 544.506C170.604 544.506 170.34 544.567 170.099 544.69C169.857 544.809 169.65 544.987 169.477 545.224C169.303 545.461 169.169 545.75 169.073 546.092C168.978 546.434 168.93 546.828 168.93 547.274V547.562C168.93 547.912 168.978 548.243 169.073 548.553C169.174 548.858 169.317 549.127 169.504 549.359C169.695 549.592 169.925 549.774 170.194 549.906C170.468 550.038 170.778 550.104 171.124 550.104C171.571 550.104 171.949 550.013 172.259 549.831C172.569 549.649 172.84 549.405 173.072 549.1L173.838 549.708C173.678 549.95 173.476 550.18 173.229 550.398C172.983 550.617 172.68 550.795 172.32 550.932C171.965 551.068 171.543 551.137 171.056 551.137ZM176.265 543.604L177.885 546.297L179.525 543.604H181.009L178.589 547.254L181.084 551H179.621L177.912 548.225L176.203 551H174.733L177.222 547.254L174.809 543.604H176.265ZM185.452 543.604V544.574H181.453V543.604H185.452ZM182.807 541.806H184.071V549.168C184.071 549.419 184.11 549.608 184.188 549.735C184.265 549.863 184.365 549.947 184.488 549.988C184.611 550.029 184.743 550.05 184.885 550.05C184.99 550.05 185.099 550.041 185.213 550.022C185.331 550 185.42 549.981 185.479 549.968L185.486 551C185.386 551.032 185.254 551.062 185.09 551.089C184.93 551.121 184.737 551.137 184.509 551.137C184.199 551.137 183.914 551.075 183.654 550.952C183.395 550.829 183.187 550.624 183.032 550.337C182.882 550.045 182.807 549.653 182.807 549.161V541.806Z" fill="#7C3AED"/>
<path fill-rule="evenodd" clip-rule="evenodd" d="M207.53 545.47L207 546L207.53 546.53C207.823 546.237 207.823 545.763 207.53 545.47ZM205.939 546L199.47 552.47C199.177 552.763 199.177 553.237 199.47 553.53C199.763 553.823 200.237 553.823 200.53 553.53L207.53 546.53C207.53 546.53 207.53 546.53 207 546C207.53 545.47 207.53 545.47 207.53 545.47L200.53 538.47C200.237 538.177 199.763 538.177 199.47 538.47C199.177 538.763 199.177 539.237 199.47 539.53L205.939 546Z" fill="#7C3AED"/>
<rect x="120" y="224" width="106" height="48" rx="4" fill="#7C3AED"/>
<path d="M149.766 249.047H146.906V247.07H149.766C150.188 247.07 150.526 247 150.781 246.859C151.042 246.719 151.232 246.526 151.352 246.281C151.477 246.031 151.539 245.75 151.539 245.438C151.539 245.115 151.477 244.815 151.352 244.539C151.232 244.258 151.042 244.031 150.781 243.859C150.526 243.688 150.188 243.602 149.766 243.602H147.828V253H145.281V241.625H149.766C150.672 241.625 151.448 241.789 152.094 242.117C152.745 242.445 153.242 242.896 153.586 243.469C153.935 244.036 154.109 244.688 154.109 245.422C154.109 246.156 153.935 246.794 153.586 247.336C153.242 247.878 152.745 248.299 152.094 248.602C151.448 248.898 150.672 249.047 149.766 249.047ZM157.977 246.516V253H155.539V244.547H157.828L157.977 246.516ZM160.5 244.484L160.461 246.758C160.357 246.742 160.221 246.729 160.055 246.719C159.888 246.703 159.745 246.695 159.625 246.695C159.312 246.695 159.042 246.734 158.812 246.812C158.589 246.885 158.401 246.995 158.25 247.141C158.104 247.286 157.995 247.469 157.922 247.688C157.849 247.901 157.812 248.148 157.812 248.43L157.352 248.203C157.352 247.646 157.406 247.135 157.516 246.672C157.625 246.208 157.784 245.807 157.992 245.469C158.201 245.125 158.456 244.859 158.758 244.672C159.06 244.484 159.404 244.391 159.789 244.391C159.914 244.391 160.042 244.398 160.172 244.414C160.302 244.43 160.411 244.453 160.5 244.484ZM164.07 244.547V253H161.625V244.547H164.07ZM161.477 242.359C161.477 242.005 161.602 241.716 161.852 241.492C162.102 241.263 162.43 241.148 162.836 241.148C163.242 241.148 163.57 241.263 163.82 241.492C164.076 241.716 164.203 242.005 164.203 242.359C164.203 242.708 164.076 242.997 163.82 243.227C163.57 243.451 163.242 243.562 162.836 243.562C162.43 243.562 162.102 243.451 161.852 243.227C161.602 242.997 161.477 242.708 161.477 242.359ZM168.273 246.32V253H165.836V244.547H168.125L168.273 246.32ZM167.961 248.477L167.344 248.492C167.344 247.898 167.414 247.354 167.555 246.859C167.701 246.359 167.911 245.924 168.188 245.555C168.464 245.185 168.805 244.898 169.211 244.695C169.622 244.492 170.096 244.391 170.633 244.391C171.008 244.391 171.349 244.448 171.656 244.562C171.964 244.672 172.227 244.846 172.445 245.086C172.669 245.32 172.841 245.628 172.961 246.008C173.081 246.383 173.141 246.833 173.141 247.359V253H170.703V247.656C170.703 247.281 170.656 246.997 170.562 246.805C170.474 246.607 170.344 246.471 170.172 246.398C170 246.326 169.794 246.289 169.555 246.289C169.294 246.289 169.062 246.346 168.859 246.461C168.661 246.57 168.495 246.724 168.359 246.922C168.224 247.12 168.122 247.352 168.055 247.617C167.992 247.883 167.961 248.169 167.961 248.477ZM172.891 248.352L172.117 248.414C172.117 247.841 172.185 247.31 172.32 246.82C172.456 246.331 172.659 245.906 172.93 245.547C173.201 245.182 173.536 244.898 173.938 244.695C174.344 244.492 174.815 244.391 175.352 244.391C175.747 244.391 176.107 244.448 176.43 244.562C176.758 244.677 177.039 244.862 177.273 245.117C177.513 245.372 177.698 245.708 177.828 246.125C177.958 246.536 178.023 247.042 178.023 247.641V253H175.57V247.641C175.57 247.271 175.523 246.99 175.43 246.797C175.341 246.604 175.211 246.471 175.039 246.398C174.872 246.326 174.672 246.289 174.438 246.289C174.177 246.289 173.951 246.344 173.758 246.453C173.565 246.557 173.404 246.703 173.273 246.891C173.143 247.073 173.047 247.289 172.984 247.539C172.922 247.789 172.891 248.06 172.891 248.352ZM184.133 250.984V247.359C184.133 247.104 184.094 246.885 184.016 246.703C183.938 246.521 183.815 246.378 183.648 246.273C183.482 246.169 183.266 246.117 183 246.117C182.776 246.117 182.581 246.156 182.414 246.234C182.253 246.312 182.128 246.424 182.039 246.57C181.956 246.716 181.914 246.896 181.914 247.109H179.477C179.477 246.729 179.562 246.375 179.734 246.047C179.906 245.719 180.151 245.43 180.469 245.18C180.792 244.93 181.177 244.737 181.625 244.602C182.073 244.461 182.576 244.391 183.133 244.391C183.794 244.391 184.383 244.503 184.898 244.727C185.419 244.945 185.831 245.276 186.133 245.719C186.435 246.156 186.586 246.708 186.586 247.375V250.914C186.586 251.424 186.615 251.826 186.672 252.117C186.734 252.404 186.823 252.654 186.938 252.867V253H184.477C184.362 252.755 184.276 252.453 184.219 252.094C184.161 251.729 184.133 251.359 184.133 250.984ZM184.438 247.844L184.453 249.188H183.242C182.971 249.188 182.737 249.221 182.539 249.289C182.346 249.357 182.19 249.451 182.07 249.57C181.951 249.685 181.862 249.82 181.805 249.977C181.753 250.128 181.727 250.294 181.727 250.477C181.727 250.648 181.768 250.805 181.852 250.945C181.935 251.081 182.049 251.188 182.195 251.266C182.341 251.344 182.51 251.383 182.703 251.383C183.021 251.383 183.292 251.32 183.516 251.195C183.745 251.07 183.922 250.919 184.047 250.742C184.172 250.56 184.234 250.391 184.234 250.234L184.82 251.25C184.727 251.458 184.612 251.674 184.477 251.898C184.341 252.117 184.169 252.323 183.961 252.516C183.753 252.703 183.5 252.857 183.203 252.977C182.911 253.096 182.56 253.156 182.148 253.156C181.617 253.156 181.135 253.049 180.703 252.836C180.271 252.617 179.924 252.318 179.664 251.938C179.409 251.557 179.281 251.12 179.281 250.625C179.281 250.182 179.362 249.789 179.523 249.445C179.685 249.102 179.927 248.81 180.25 248.57C180.578 248.331 180.99 248.151 181.484 248.031C181.979 247.906 182.557 247.844 183.219 247.844H184.438ZM190.633 246.516V253H188.195V244.547H190.484L190.633 246.516ZM193.156 244.484L193.117 246.758C193.013 246.742 192.878 246.729 192.711 246.719C192.544 246.703 192.401 246.695 192.281 246.695C191.969 246.695 191.698 246.734 191.469 246.812C191.245 246.885 191.057 246.995 190.906 247.141C190.76 247.286 190.651 247.469 190.578 247.688C190.505 247.901 190.469 248.148 190.469 248.43L190.008 248.203C190.008 247.646 190.062 247.135 190.172 246.672C190.281 246.208 190.44 245.807 190.648 245.469C190.857 245.125 191.112 244.859 191.414 244.672C191.716 244.484 192.06 244.391 192.445 244.391C192.57 244.391 192.698 244.398 192.828 244.414C192.958 244.43 193.068 244.453 193.156 244.484ZM196.844 252.023L199.055 244.547H201.68L198.281 254.266C198.208 254.479 198.109 254.708 197.984 254.953C197.865 255.198 197.701 255.432 197.492 255.656C197.289 255.88 197.029 256.062 196.711 256.203C196.393 256.344 196.003 256.414 195.539 256.414C195.305 256.414 195.122 256.401 194.992 256.375C194.867 256.354 194.701 256.318 194.492 256.266L194.484 254.492C194.552 254.492 194.612 254.492 194.664 254.492C194.721 254.497 194.779 254.5 194.836 254.5C195.128 254.5 195.362 254.469 195.539 254.406C195.721 254.344 195.862 254.25 195.961 254.125C196.065 254.005 196.148 253.852 196.211 253.664L196.844 252.023ZM196.102 244.547L197.852 250.562L198.148 253.148L196.5 253.234L193.477 244.547H196.102Z" fill="white"/>
<rect x="182" y="166" width="48" height="48" rx="4" fill="#7C3AED"/>
<path fill-rule="evenodd" clip-rule="evenodd" d="M206.75 183C206.75 182.586 206.414 182.25 206 182.25C205.586 182.25 205.25 182.586 205.25 183V189.25H199C198.586 189.25 198.25 189.586 198.25 190C198.25 190.414 198.586 190.75 199 190.75H205.25V197C205.25 197.414 205.586 197.75 206 197.75C206.414 197.75 206.75 197.414 206.75 197V190.75H213C213.414 190.75 213.75 190.414 213.75 190C213.75 189.586 213.414 189.25 213 189.25H206.75V183Z" fill="white"/>
<rect x="120" y="224" width="106" height="48" rx="4" fill="#7C3AED"/>
<path d="M149.766 249.047H146.906V247.07H149.766C150.188 247.07 150.526 247 150.781 246.859C151.042 246.719 151.232 246.526 151.352 246.281C151.477 246.031 151.539 245.75 151.539 245.438C151.539 245.115 151.477 244.815 151.352 244.539C151.232 244.258 151.042 244.031 150.781 243.859C150.526 243.688 150.188 243.602 149.766 243.602H147.828V253H145.281V241.625H149.766C150.672 241.625 151.448 241.789 152.094 242.117C152.745 242.445 153.242 242.896 153.586 243.469C153.935 244.036 154.109 244.688 154.109 245.422C154.109 246.156 153.935 246.794 153.586 247.336C153.242 247.878 152.745 248.299 152.094 248.602C151.448 248.898 150.672 249.047 149.766 249.047ZM157.977 246.516V253H155.539V244.547H157.828L157.977 246.516ZM160.5 244.484L160.461 246.758C160.357 246.742 160.221 246.729 160.055 246.719C159.888 246.703 159.745 246.695 159.625 246.695C159.312 246.695 159.042 246.734 158.812 246.812C158.589 246.885 158.401 246.995 158.25 247.141C158.104 247.286 157.995 247.469 157.922 247.688C157.849 247.901 157.812 248.148 157.812 248.43L157.352 248.203C157.352 247.646 157.406 247.135 157.516 246.672C157.625 246.208 157.784 245.807 157.992 245.469C158.201 245.125 158.456 244.859 158.758 244.672C159.06 244.484 159.404 244.391 159.789 244.391C159.914 244.391 160.042 244.398 160.172 244.414C160.302 244.43 160.411 244.453 160.5 244.484ZM164.07 244.547V253H161.625V244.547H164.07ZM161.477 242.359C161.477 242.005 161.602 241.716 161.852 241.492C162.102 241.263 162.43 241.148 162.836 241.148C163.242 241.148 163.57 241.263 163.82 241.492C164.076 241.716 164.203 242.005 164.203 242.359C164.203 242.708 164.076 242.997 163.82 243.227C163.57 243.451 163.242 243.562 162.836 243.562C162.43 243.562 162.102 243.451 161.852 243.227C161.602 242.997 161.477 242.708 161.477 242.359ZM168.273 246.32V253H165.836V244.547H168.125L168.273 246.32ZM167.961 248.477L167.344 248.492C167.344 247.898 167.414 247.354 167.555 246.859C167.701 246.359 167.911 245.924 168.188 245.555C168.464 245.185 168.805 244.898 169.211 244.695C169.622 244.492 170.096 244.391 170.633 244.391C171.008 244.391 171.349 244.448 171.656 244.562C171.964 244.672 172.227 244.846 172.445 245.086C172.669 245.32 172.841 245.628 172.961 246.008C173.081 246.383 173.141 246.833 173.141 247.359V253H170.703V247.656C170.703 247.281 170.656 246.997 170.562 246.805C170.474 246.607 170.344 246.471 170.172 246.398C170 246.326 169.794 246.289 169.555 246.289C169.294 246.289 169.062 246.346 168.859 246.461C168.661 246.57 168.495 246.724 168.359 246.922C168.224 247.12 168.122 247.352 168.055 247.617C167.992 247.883 167.961 248.169 167.961 248.477ZM172.891 248.352L172.117 248.414C172.117 247.841 172.185 247.31 172.32 246.82C172.456 246.331 172.659 245.906 172.93 245.547C173.201 245.182 173.536 244.898 173.938 244.695C174.344 244.492 174.815 244.391 175.352 244.391C175.747 244.391 176.107 244.448 176.43 244.562C176.758 244.677 177.039 244.862 177.273 245.117C177.513 245.372 177.698 245.708 177.828 246.125C177.958 246.536 178.023 247.042 178.023 247.641V253H175.57V247.641C175.57 247.271 175.523 246.99 175.43 246.797C175.341 246.604 175.211 246.471 175.039 246.398C174.872 246.326 174.672 246.289 174.438 246.289C174.177 246.289 173.951 246.344 173.758 246.453C173.565 246.557 173.404 246.703 173.273 246.891C173.143 247.073 173.047 247.289 172.984 247.539C172.922 247.789 172.891 248.06 172.891 248.352ZM184.133 250.984V247.359C184.133 247.104 184.094 246.885 184.016 246.703C183.938 246.521 183.815 246.378 183.648 246.273C183.482 246.169 183.266 246.117 183 246.117C182.776 246.117 182.581 246.156 182.414 246.234C182.253 246.312 182.128 246.424 182.039 246.57C181.956 246.716 181.914 246.896 181.914 247.109H179.477C179.477 246.729 179.562 246.375 179.734 246.047C179.906 245.719 180.151 245.43 180.469 245.18C180.792 244.93 181.177 244.737 181.625 244.602C182.073 244.461 182.576 244.391 183.133 244.391C183.794 244.391 184.383 244.503 184.898 244.727C185.419 244.945 185.831 245.276 186.133 245.719C186.435 246.156 186.586 246.708 186.586 247.375V250.914C186.586 251.424 186.615 251.826 186.672 252.117C186.734 252.404 186.823 252.654 186.938 252.867V253H184.477C184.362 252.755 184.276 252.453 184.219 252.094C184.161 251.729 184.133 251.359 184.133 250.984ZM184.438 247.844L184.453 249.188H183.242C182.971 249.188 182.737 249.221 182.539 249.289C182.346 249.357 182.19 249.451 182.07 249.57C181.951 249.685 181.862 249.82 181.805 249.977C181.753 250.128 181.727 250.294 181.727 250.477C181.727 250.648 181.768 250.805 181.852 250.945C181.935 251.081 182.049 251.188 182.195 251.266C182.341 251.344 182.51 251.383 182.703 251.383C183.021 251.383 183.292 251.32 183.516 251.195C183.745 251.07 183.922 250.919 184.047 250.742C184.172 250.56 184.234 250.391 184.234 250.234L184.82 251.25C184.727 251.458 184.612 251.674 184.477 251.898C184.341 252.117 184.169 252.323 183.961 252.516C183.753 252.703 183.5 252.857 183.203 252.977C182.911 253.096 182.56 253.156 182.148 253.156C181.617 253.156 181.135 253.049 180.703 252.836C180.271 252.617 179.924 252.318 179.664 251.938C179.409 251.557 179.281 251.12 179.281 250.625C179.281 250.182 179.362 249.789 179.523 249.445C179.685 249.102 179.927 248.81 180.25 248.57C180.578 248.331 180.99 248.151 181.484 248.031C181.979 247.906 182.557 247.844 183.219 247.844H184.438ZM190.633 246.516V253H188.195V244.547H190.484L190.633 246.516ZM193.156 244.484L193.117 246.758C193.013 246.742 192.878 246.729 192.711 246.719C192.544 246.703 192.401 246.695 192.281 246.695C191.969 246.695 191.698 246.734 191.469 246.812C191.245 246.885 191.057 246.995 190.906 247.141C190.76 247.286 190.651 247.469 190.578 247.688C190.505 247.901 190.469 248.148 190.469 248.43L190.008 248.203C190.008 247.646 190.062 247.135 190.172 246.672C190.281 246.208 190.44 245.807 190.648 245.469C190.857 245.125 191.112 244.859 191.414 244.672C191.716 244.484 192.06 244.391 192.445 244.391C192.57 244.391 192.698 244.398 192.828 244.414C192.958 244.43 193.068 244.453 193.156 244.484ZM196.844 252.023L199.055 244.547H201.68L198.281 254.266C198.208 254.479 198.109 254.708 197.984 254.953C197.865 255.198 197.701 255.432 197.492 255.656C197.289 255.88 197.029 256.062 196.711 256.203C196.393 256.344 196.003 256.414 195.539 256.414C195.305 256.414 195.122 256.401 194.992 256.375C194.867 256.354 194.701 256.318 194.492 256.266L194.484 254.492C194.552 254.492 194.612 254.492 194.664 254.492C194.721 254.497 194.779 254.5 194.836 254.5C195.128 254.5 195.362 254.469 195.539 254.406C195.721 254.344 195.862 254.25 195.961 254.125C196.065 254.005 196.148 253.852 196.211 253.664L196.844 252.023ZM196.102 244.547L197.852 250.562L198.148 253.148L196.5 253.234L193.477 244.547H196.102Z" fill="white"/>
<path d="M372.732 550.048L362.733 532.984C361.968 531.672 360.036 531.672 359.265 532.984L349.271 550.048C348.502 551.355 349.46 553.001 351.002 553.001H370.999C372.535 553.001 373.496 551.36 372.732 550.048ZM359.874 538.375C359.874 537.754 360.378 537.25 360.999 537.25C361.62 537.25 362.124 537.756 362.124 538.375V544.375C362.124 544.997 361.62 545.5 361.041 545.5C360.462 545.5 359.874 544.999 359.874 544.375V538.375ZM360.999 550.001C360.185 550.001 359.525 549.341 359.525 548.527C359.525 547.713 360.185 547.053 360.999 547.053C361.813 547.053 362.473 547.713 362.473 548.527C362.471 549.34 361.814 550.001 360.999 550.001Z" fill="#FFAF62"/>
<path d="M293 543C293 536.372 298.372 531 305 531C311.628 531 317 536.372 317 543C317 549.628 311.628 555 305 555C298.372 555 293 549.628 293 543ZM310.428 540.928C310.939 540.417 310.939 539.583 310.428 539.072C309.917 538.561 309.083 538.561 308.572 539.072L303.5 544.144L301.428 542.072C300.917 541.561 300.083 541.561 299.572 542.072C299.061 542.583 299.061 543.417 299.572 543.928L302.572 546.928C303.083 547.439 303.917 547.439 304.428 546.928L310.428 540.928Z" fill="#00AB49"/>
<path d="M249 531C242.372 531 237 536.372 237 543C237 549.628 242.372 555 249 555C255.628 555 261 549.628 261 543C261 536.372 255.628 531 249 531ZM247.875 538.125C247.875 537.506 248.381 537 249 537C249.619 537 250.125 537.504 250.125 538.125V544.125C250.125 544.746 249.621 545.25 249 545.25C248.379 545.25 247.875 544.748 247.875 544.125V538.125ZM249 549.75C248.186 549.75 247.526 549.09 247.526 548.276C247.526 547.462 248.186 546.802 249 546.802C249.814 546.802 250.474 547.462 250.474 548.276C250.472 549.089 249.816 549.75 249 549.75Z" fill="#D5403C"/>
<g filter="url(#filter10_dd_6_109)">
<rect width="375" height="56" transform="translate(8 605)" fill="white"/>
<rect width="93.75" height="56" transform="translate(8 605)" fill="white"/>
<path d="M39.3283 651V642.273H40.3851V646.159H45.0385V642.273H46.0953V651H45.0385V647.097H40.3851V651H39.3283ZM50.7338 651.136C50.1429 651.136 49.6245 650.996 49.1784 650.714C48.7353 650.433 48.3887 650.04 48.1387 649.534C47.8915 649.028 47.7679 648.437 47.7679 647.761C47.7679 647.08 47.8915 646.484 48.1387 645.976C48.3887 645.467 48.7353 645.072 49.1784 644.791C49.6245 644.51 50.1429 644.369 50.7338 644.369C51.3248 644.369 51.8418 644.51 52.285 644.791C52.731 645.072 53.0776 645.467 53.3248 645.976C53.5748 646.484 53.6998 647.08 53.6998 647.761C53.6998 648.437 53.5748 649.028 53.3248 649.534C53.0776 650.04 52.731 650.433 52.285 650.714C51.8418 650.996 51.3248 651.136 50.7338 651.136ZM50.7338 650.233C51.1827 650.233 51.552 650.118 51.8418 649.888C52.1316 649.658 52.3461 649.355 52.4853 648.98C52.6245 648.605 52.6941 648.199 52.6941 647.761C52.6941 647.324 52.6245 646.916 52.4853 646.538C52.3461 646.161 52.1316 645.855 51.8418 645.622C51.552 645.389 51.1827 645.273 50.7338 645.273C50.285 645.273 49.9157 645.389 49.6259 645.622C49.3361 645.855 49.1216 646.161 48.9824 646.538C48.8432 646.916 48.7736 647.324 48.7736 647.761C48.7736 648.199 48.8432 648.605 48.9824 648.98C49.1216 649.355 49.3361 649.658 49.6259 649.888C49.9157 650.118 50.285 650.233 50.7338 650.233ZM55.2349 651V644.455H56.2065V645.477H56.2917C56.4281 645.128 56.6483 644.857 56.9522 644.663C57.2562 644.467 57.6213 644.369 58.0474 644.369C58.4792 644.369 58.8386 644.467 59.1255 644.663C59.4153 644.857 59.6412 645.128 59.8031 645.477H59.8713C60.0389 645.139 60.2903 644.871 60.6255 644.672C60.9608 644.47 61.3627 644.369 61.8315 644.369C62.4167 644.369 62.8954 644.553 63.2676 644.919C63.6397 645.283 63.8258 645.849 63.8258 646.619V651H62.8201V646.619C62.8201 646.136 62.688 645.791 62.4238 645.584C62.1596 645.376 61.8485 645.273 61.4906 645.273C61.0304 645.273 60.6738 645.412 60.421 645.69C60.1681 645.966 60.0417 646.315 60.0417 646.739V651H59.019V646.517C59.019 646.145 58.8983 645.845 58.6568 645.618C58.4153 645.388 58.1042 645.273 57.7235 645.273C57.4622 645.273 57.2179 645.342 56.9906 645.482C56.7662 645.621 56.5843 645.814 56.4451 646.061C56.3088 646.305 56.2406 646.588 56.2406 646.909V651H55.2349ZM68.4089 651.136C67.7782 651.136 67.2342 650.997 66.7768 650.719C66.3223 650.438 65.9714 650.045 65.7243 649.543C65.4799 649.037 65.3578 648.449 65.3578 647.778C65.3578 647.108 65.4799 646.517 65.7243 646.006C65.9714 645.491 66.3152 645.091 66.7555 644.804C67.1987 644.514 67.7157 644.369 68.3066 644.369C68.6475 644.369 68.9842 644.426 69.3166 644.54C69.649 644.653 69.9515 644.838 70.2243 645.094C70.497 645.347 70.7143 645.682 70.8762 646.099C71.0382 646.517 71.1191 647.031 71.1191 647.642V648.068H66.0737V647.199H70.0964C70.0964 646.83 70.0225 646.5 69.8748 646.21C69.7299 645.92 69.5225 645.692 69.2527 645.524C68.9856 645.357 68.6703 645.273 68.3066 645.273C67.9061 645.273 67.5595 645.372 67.2669 645.571C66.9771 645.767 66.7541 646.023 66.5978 646.338C66.4416 646.653 66.3635 646.991 66.3635 647.352V647.932C66.3635 648.426 66.4487 648.845 66.6191 649.189C66.7924 649.53 67.0325 649.79 67.3393 649.969C67.6461 650.145 68.0027 650.233 68.4089 650.233C68.6731 650.233 68.9118 650.196 69.1248 650.122C69.3407 650.045 69.5268 649.932 69.6831 649.781C69.8393 649.628 69.96 649.437 70.0453 649.21L71.0169 649.483C70.9146 649.812 70.7427 650.102 70.5012 650.352C70.2598 650.599 69.9615 650.793 69.6064 650.932C69.2512 651.068 68.8521 651.136 68.4089 651.136Z" fill="#7C3AED"/>
<rect width="93.75" height="56" transform="translate(101.75 605)" fill="white"/>
<path d="M128.695 651V642.273H133.963V643.21H129.752V646.159H133.69V647.097H129.752V650.062H134.031V651H128.695ZM136.481 644.455L138.049 647.131L139.617 644.455H140.776L138.663 647.727L140.776 651H139.617L138.049 648.46L136.481 651H135.322L137.401 647.727L135.322 644.455H136.481ZM142.211 653.455V644.455H143.183V645.494H143.302C143.376 645.381 143.479 645.236 143.609 645.06C143.743 644.881 143.933 644.722 144.18 644.582C144.43 644.44 144.768 644.369 145.194 644.369C145.746 644.369 146.231 644.507 146.652 644.783C147.072 645.058 147.4 645.449 147.636 645.955C147.872 646.46 147.99 647.057 147.99 647.744C147.99 648.438 147.872 649.038 147.636 649.547C147.4 650.053 147.074 650.445 146.656 650.723C146.238 650.999 145.757 651.136 145.211 651.136C144.791 651.136 144.454 651.067 144.202 650.928C143.949 650.786 143.754 650.625 143.618 650.446C143.481 650.264 143.376 650.114 143.302 649.994H143.217V653.455H142.211ZM143.2 647.727C143.2 648.222 143.273 648.658 143.417 649.036C143.562 649.411 143.774 649.705 144.052 649.918C144.331 650.128 144.672 650.233 145.075 650.233C145.496 650.233 145.846 650.122 146.128 649.901C146.412 649.676 146.625 649.375 146.767 648.997C146.912 648.616 146.984 648.193 146.984 647.727C146.984 647.267 146.913 646.852 146.771 646.483C146.632 646.111 146.42 645.817 146.136 645.601C145.855 645.382 145.501 645.273 145.075 645.273C144.666 645.273 144.322 645.376 144.044 645.584C143.765 645.788 143.555 646.075 143.413 646.445C143.271 646.811 143.2 647.239 143.2 647.727ZM150.53 642.273V651H149.524V642.273H150.53ZM155.031 651.136C154.44 651.136 153.921 650.996 153.475 650.714C153.032 650.433 152.686 650.04 152.436 649.534C152.188 649.028 152.065 648.437 152.065 647.761C152.065 647.08 152.188 646.484 152.436 645.976C152.686 645.467 153.032 645.072 153.475 644.791C153.921 644.51 154.44 644.369 155.031 644.369C155.622 644.369 156.139 644.51 156.582 644.791C157.028 645.072 157.374 645.467 157.622 645.976C157.872 646.484 157.997 647.08 157.997 647.761C157.997 648.437 157.872 649.028 157.622 649.534C157.374 650.04 157.028 650.433 156.582 650.714C156.139 650.996 155.622 651.136 155.031 651.136ZM155.031 650.233C155.48 650.233 155.849 650.118 156.139 649.888C156.428 649.658 156.643 649.355 156.782 648.98C156.921 648.605 156.991 648.199 156.991 647.761C156.991 647.324 156.921 646.916 156.782 646.538C156.643 646.161 156.428 645.855 156.139 645.622C155.849 645.389 155.48 645.273 155.031 645.273C154.582 645.273 154.213 645.389 153.923 645.622C153.633 645.855 153.419 646.161 153.279 646.538C153.14 646.916 153.07 647.324 153.07 647.761C153.07 648.199 153.14 648.605 153.279 648.98C153.419 649.355 153.633 649.658 153.923 649.888C154.213 650.118 154.582 650.233 155.031 650.233ZM159.532 651V644.455H160.503V645.443H160.572C160.691 645.119 160.907 644.857 161.219 644.655C161.532 644.453 161.884 644.352 162.276 644.352C162.35 644.352 162.442 644.354 162.553 644.357C162.664 644.359 162.748 644.364 162.805 644.369V645.392C162.77 645.384 162.692 645.371 162.57 645.354C162.451 645.334 162.324 645.324 162.191 645.324C161.873 645.324 161.589 645.391 161.339 645.524C161.091 645.655 160.895 645.837 160.751 646.07C160.608 646.3 160.537 646.562 160.537 646.858V651H159.532ZM166.542 651.136C165.911 651.136 165.367 650.997 164.91 650.719C164.455 650.438 164.104 650.045 163.857 649.543C163.613 649.037 163.491 648.449 163.491 647.778C163.491 647.108 163.613 646.517 163.857 646.006C164.104 645.491 164.448 645.091 164.888 644.804C165.331 644.514 165.849 644.369 166.439 644.369C166.78 644.369 167.117 644.426 167.449 644.54C167.782 644.653 168.084 644.838 168.357 645.094C168.63 645.347 168.847 645.682 169.009 646.099C169.171 646.517 169.252 647.031 169.252 647.642V648.068H164.206V647.199H168.229C168.229 646.83 168.155 646.5 168.008 646.21C167.863 645.92 167.655 645.692 167.385 645.524C167.118 645.357 166.803 645.273 166.439 645.273C166.039 645.273 165.692 645.372 165.4 645.571C165.11 645.767 164.887 646.023 164.731 646.338C164.574 646.653 164.496 646.991 164.496 647.352V647.932C164.496 648.426 164.581 648.845 164.752 649.189C164.925 649.53 165.165 649.79 165.472 649.969C165.779 650.145 166.135 650.233 166.542 650.233C166.806 650.233 167.045 650.196 167.258 650.122C167.474 650.045 167.66 649.932 167.816 649.781C167.972 649.628 168.093 649.437 168.178 649.21L169.15 649.483C169.047 649.812 168.876 650.102 168.634 650.352C168.393 650.599 168.094 650.793 167.739 650.932C167.384 651.068 166.985 651.136 166.542 651.136Z" fill="#6C7072"/>
<rect width="93.75" height="56" transform="translate(195.5 605)" fill="white"/>
<path d="M217.764 642.273V651H216.742L211.986 644.148H211.901V651H210.844V642.273H211.867L216.639 649.142H216.725V642.273H217.764ZM222.402 651.136C221.811 651.136 221.292 650.996 220.846 650.714C220.403 650.433 220.057 650.04 219.807 649.534C219.559 649.028 219.436 648.437 219.436 647.761C219.436 647.08 219.559 646.484 219.807 645.976C220.057 645.467 220.403 645.072 220.846 644.791C221.292 644.51 221.811 644.369 222.402 644.369C222.993 644.369 223.51 644.51 223.953 644.791C224.399 645.072 224.746 645.467 224.993 645.976C225.243 646.484 225.368 647.08 225.368 647.761C225.368 648.437 225.243 649.028 224.993 649.534C224.746 650.04 224.399 650.433 223.953 650.714C223.51 650.996 222.993 651.136 222.402 651.136ZM222.402 650.233C222.851 650.233 223.22 650.118 223.51 649.888C223.8 649.658 224.014 649.355 224.153 648.98C224.292 648.605 224.362 648.199 224.362 647.761C224.362 647.324 224.292 646.916 224.153 646.538C224.014 646.161 223.8 645.855 223.51 645.622C223.22 645.389 222.851 645.273 222.402 645.273C221.953 645.273 221.584 645.389 221.294 645.622C221.004 645.855 220.79 646.161 220.65 646.538C220.511 646.916 220.442 647.324 220.442 647.761C220.442 648.199 220.511 648.605 220.65 648.98C220.79 649.355 221.004 649.658 221.294 649.888C221.584 650.118 221.953 650.233 222.402 650.233ZM229.749 644.455V645.307H226.357V644.455H229.749ZM227.346 642.886H228.352V649.125C228.352 649.409 228.393 649.622 228.475 649.764C228.561 649.903 228.669 649.997 228.799 650.045C228.933 650.091 229.073 650.114 229.221 650.114C229.332 650.114 229.423 650.108 229.494 650.097C229.565 650.082 229.622 650.071 229.664 650.062L229.869 650.966C229.801 650.991 229.705 651.017 229.583 651.043C229.461 651.071 229.306 651.085 229.119 651.085C228.835 651.085 228.556 651.024 228.284 650.902C228.014 650.78 227.789 650.594 227.61 650.344C227.434 650.094 227.346 649.778 227.346 649.398V642.886ZM231.262 651V644.455H232.268V651H231.262ZM231.774 643.364C231.578 643.364 231.409 643.297 231.267 643.163C231.127 643.03 231.058 642.869 231.058 642.682C231.058 642.494 231.127 642.334 231.267 642.2C231.409 642.067 231.578 642 231.774 642C231.97 642 232.137 642.067 232.276 642.2C232.419 642.334 232.49 642.494 232.49 642.682C232.49 642.869 232.419 643.03 232.276 643.163C232.137 643.297 231.97 643.364 231.774 643.364ZM237.025 644.455V645.307H233.496V644.455H237.025ZM234.553 651V643.551C234.553 643.176 234.641 642.864 234.817 642.614C234.993 642.364 235.222 642.176 235.503 642.051C235.785 641.926 236.081 641.864 236.394 641.864C236.641 641.864 236.843 641.884 236.999 641.923C237.155 641.963 237.272 642 237.349 642.034L237.059 642.903C237.008 642.886 236.937 642.865 236.846 642.839C236.758 642.814 236.641 642.801 236.496 642.801C236.164 642.801 235.924 642.885 235.776 643.053C235.631 643.22 235.559 643.466 235.559 643.79V651H234.553ZM238.434 651V644.455H239.44V651H238.434ZM238.945 643.364C238.749 643.364 238.58 643.297 238.438 643.163C238.299 643.03 238.23 642.869 238.23 642.682C238.23 642.494 238.299 642.334 238.438 642.2C238.58 642.067 238.749 642 238.945 642C239.142 642 239.309 642.067 239.448 642.2C239.59 642.334 239.661 642.494 239.661 642.682C239.661 642.869 239.59 643.03 239.448 643.163C239.309 643.297 239.142 643.364 238.945 643.364ZM243.941 651.136C243.327 651.136 242.799 650.991 242.356 650.702C241.912 650.412 241.572 650.013 241.333 649.504C241.094 648.996 240.975 648.415 240.975 647.761C240.975 647.097 241.097 646.51 241.341 646.001C241.589 645.49 241.932 645.091 242.373 644.804C242.816 644.514 243.333 644.369 243.924 644.369C244.384 644.369 244.799 644.455 245.168 644.625C245.537 644.795 245.84 645.034 246.076 645.341C246.312 645.648 246.458 646.006 246.515 646.415H245.509C245.432 646.116 245.262 645.852 244.998 645.622C244.736 645.389 244.384 645.273 243.941 645.273C243.549 645.273 243.205 645.375 242.91 645.58C242.617 645.781 242.388 646.067 242.224 646.436C242.062 646.803 241.981 647.233 241.981 647.727C241.981 648.233 242.06 648.673 242.219 649.048C242.381 649.423 242.608 649.714 242.901 649.922C243.197 650.129 243.543 650.233 243.941 650.233C244.202 650.233 244.439 650.188 244.653 650.097C244.866 650.006 245.046 649.875 245.194 649.705C245.341 649.534 245.447 649.33 245.509 649.091H246.515C246.458 649.477 246.317 649.825 246.093 650.135C245.871 650.442 245.577 650.686 245.211 650.868C244.847 651.047 244.424 651.136 243.941 651.136ZM249.911 651.153C249.496 651.153 249.12 651.075 248.782 650.919C248.444 650.76 248.175 650.531 247.976 650.233C247.778 649.932 247.678 649.568 247.678 649.142C247.678 648.767 247.752 648.463 247.9 648.23C248.047 647.994 248.245 647.81 248.492 647.676C248.739 647.543 249.012 647.443 249.31 647.378C249.611 647.31 249.914 647.256 250.218 647.216C250.616 647.165 250.938 647.126 251.185 647.101C251.435 647.072 251.617 647.026 251.731 646.96C251.847 646.895 251.905 646.781 251.905 646.619V646.585C251.905 646.165 251.79 645.838 251.56 645.605C251.333 645.372 250.988 645.256 250.525 645.256C250.045 645.256 249.668 645.361 249.395 645.571C249.123 645.781 248.931 646.006 248.82 646.244L247.866 645.903C248.036 645.506 248.263 645.196 248.547 644.974C248.834 644.75 249.147 644.594 249.485 644.506C249.826 644.415 250.161 644.369 250.491 644.369C250.701 644.369 250.942 644.395 251.215 644.446C251.491 644.494 251.756 644.595 252.012 644.749C252.27 644.902 252.485 645.134 252.655 645.443C252.826 645.753 252.911 646.168 252.911 646.688V651H251.905V650.114H251.854C251.786 650.256 251.672 650.408 251.513 650.57C251.354 650.732 251.143 650.869 250.878 650.983C250.614 651.097 250.292 651.153 249.911 651.153ZM250.064 650.25C250.462 650.25 250.797 650.172 251.07 650.016C251.346 649.859 251.553 649.658 251.692 649.411C251.834 649.163 251.905 648.903 251.905 648.631V647.71C251.863 647.761 251.769 647.808 251.624 647.851C251.482 647.891 251.317 647.926 251.13 647.957C250.945 647.986 250.765 648.011 250.589 648.034C250.415 648.054 250.275 648.071 250.167 648.085C249.905 648.119 249.661 648.175 249.434 648.251C249.209 648.325 249.028 648.437 248.888 648.588C248.752 648.736 248.684 648.937 248.684 649.193C248.684 649.543 248.813 649.807 249.072 649.986C249.333 650.162 249.664 650.25 250.064 650.25ZM257.593 644.455V645.307H254.201V644.455H257.593ZM255.19 642.886H256.195V649.125C256.195 649.409 256.237 649.622 256.319 649.764C256.404 649.903 256.512 649.997 256.643 650.045C256.776 650.091 256.917 650.114 257.065 650.114C257.176 650.114 257.267 650.108 257.338 650.097C257.409 650.082 257.465 650.071 257.508 650.062L257.713 650.966C257.644 650.991 257.549 651.017 257.427 651.043C257.305 651.071 257.15 651.085 256.963 651.085C256.678 651.085 256.4 651.024 256.127 650.902C255.857 650.78 255.633 650.594 255.454 650.344C255.278 650.094 255.19 649.778 255.19 649.398V642.886ZM259.106 651V644.455H260.112V651H259.106ZM259.617 643.364C259.421 643.364 259.252 643.297 259.11 643.163C258.971 643.03 258.901 642.869 258.901 642.682C258.901 642.494 258.971 642.334 259.11 642.2C259.252 642.067 259.421 642 259.617 642C259.813 642 259.981 642.067 260.12 642.2C260.262 642.334 260.333 642.494 260.333 642.682C260.333 642.869 260.262 643.03 260.12 643.163C259.981 643.297 259.813 643.364 259.617 643.364ZM264.613 651.136C264.022 651.136 263.503 650.996 263.057 650.714C262.614 650.433 262.268 650.04 262.018 649.534C261.77 649.028 261.647 648.437 261.647 647.761C261.647 647.08 261.77 646.484 262.018 645.976C262.268 645.467 262.614 645.072 263.057 644.791C263.503 644.51 264.022 644.369 264.613 644.369C265.204 644.369 265.721 644.51 266.164 644.791C266.61 645.072 266.956 645.467 267.204 645.976C267.454 646.484 267.579 647.08 267.579 647.761C267.579 648.437 267.454 649.028 267.204 649.534C266.956 650.04 266.61 650.433 266.164 650.714C265.721 650.996 265.204 651.136 264.613 651.136ZM264.613 650.233C265.062 650.233 265.431 650.118 265.721 649.888C266.01 649.658 266.225 649.355 266.364 648.98C266.503 648.605 266.573 648.199 266.573 647.761C266.573 647.324 266.503 646.916 266.364 646.538C266.225 646.161 266.01 645.855 265.721 645.622C265.431 645.389 265.062 645.273 264.613 645.273C264.164 645.273 263.795 645.389 263.505 645.622C263.215 645.855 263.001 646.161 262.861 646.538C262.722 646.916 262.653 647.324 262.653 647.761C262.653 648.199 262.722 648.605 262.861 648.98C263.001 649.355 263.215 649.658 263.505 649.888C263.795 650.118 264.164 650.233 264.613 650.233ZM270.119 647.062V651H269.114V644.455H270.085V645.477H270.171C270.324 645.145 270.557 644.878 270.869 644.676C271.182 644.472 271.585 644.369 272.08 644.369C272.523 644.369 272.911 644.46 273.243 644.642C273.575 644.821 273.834 645.094 274.019 645.46C274.203 645.824 274.296 646.284 274.296 646.841V651H273.29V646.909C273.29 646.395 273.156 645.994 272.889 645.707C272.622 645.418 272.256 645.273 271.79 645.273C271.469 645.273 271.182 645.342 270.929 645.482C270.679 645.621 270.482 645.824 270.337 646.091C270.192 646.358 270.119 646.682 270.119 647.062Z" fill="#6C7072"/>
<rect width="93.75" height="56" transform="translate(289.25 605)" fill="white"/>
<path d="M319.283 651V642.273H322.232C322.917 642.273 323.477 642.396 323.911 642.643C324.349 642.888 324.673 643.219 324.883 643.636C325.093 644.054 325.198 644.52 325.198 645.034C325.198 645.548 325.093 646.016 324.883 646.436C324.675 646.857 324.354 647.192 323.92 647.442C323.485 647.689 322.928 647.812 322.249 647.812H320.136V646.875H322.215C322.684 646.875 323.06 646.794 323.344 646.632C323.629 646.47 323.835 646.251 323.962 645.976C324.093 645.697 324.158 645.384 324.158 645.034C324.158 644.685 324.093 644.372 323.962 644.097C323.835 643.821 323.627 643.605 323.34 643.449C323.053 643.29 322.673 643.21 322.198 643.21H320.34V651H319.283ZM326.764 651V644.455H327.736V645.443H327.804C327.923 645.119 328.139 644.857 328.452 644.655C328.764 644.453 329.116 644.352 329.509 644.352C329.582 644.352 329.675 644.354 329.786 644.357C329.896 644.359 329.98 644.364 330.037 644.369V645.392C330.003 645.384 329.925 645.371 329.803 645.354C329.683 645.334 329.557 645.324 329.423 645.324C329.105 645.324 328.821 645.391 328.571 645.524C328.324 645.655 328.128 645.837 327.983 646.07C327.841 646.3 327.77 646.562 327.77 646.858V651H326.764ZM333.689 651.136C333.098 651.136 332.58 650.996 332.134 650.714C331.69 650.433 331.344 650.04 331.094 649.534C330.847 649.028 330.723 648.437 330.723 647.761C330.723 647.08 330.847 646.484 331.094 645.976C331.344 645.467 331.69 645.072 332.134 644.791C332.58 644.51 333.098 644.369 333.689 644.369C334.28 644.369 334.797 644.51 335.24 644.791C335.686 645.072 336.033 645.467 336.28 645.976C336.53 646.484 336.655 647.08 336.655 647.761C336.655 648.437 336.53 649.028 336.28 649.534C336.033 650.04 335.686 650.433 335.24 650.714C334.797 650.996 334.28 651.136 333.689 651.136ZM333.689 650.233C334.138 650.233 334.507 650.118 334.797 649.888C335.087 649.658 335.301 649.355 335.44 648.98C335.58 648.605 335.649 648.199 335.649 647.761C335.649 647.324 335.58 646.916 335.44 646.538C335.301 646.161 335.087 645.855 334.797 645.622C334.507 645.389 334.138 645.273 333.689 645.273C333.24 645.273 332.871 645.389 332.581 645.622C332.291 645.855 332.077 646.161 331.938 646.538C331.798 646.916 331.729 647.324 331.729 647.761C331.729 648.199 331.798 648.605 331.938 648.98C332.077 649.355 332.291 649.658 332.581 649.888C332.871 650.118 333.24 650.233 333.689 650.233ZM341.105 644.455V645.307H337.576V644.455H341.105ZM338.633 651V643.551C338.633 643.176 338.721 642.864 338.897 642.614C339.074 642.364 339.302 642.176 339.583 642.051C339.865 641.926 340.162 641.864 340.474 641.864C340.721 641.864 340.923 641.884 341.079 641.923C341.235 641.963 341.352 642 341.429 642.034L341.139 642.903C341.088 642.886 341.017 642.865 340.926 642.839C340.838 642.814 340.721 642.801 340.576 642.801C340.244 642.801 340.004 642.885 339.856 643.053C339.711 643.22 339.639 643.466 339.639 643.79V651H338.633ZM342.514 651V644.455H343.52V651H342.514ZM343.026 643.364C342.83 643.364 342.661 643.297 342.518 643.163C342.379 643.03 342.31 642.869 342.31 642.682C342.31 642.494 342.379 642.334 342.518 642.2C342.661 642.067 342.83 642 343.026 642C343.222 642 343.389 642.067 343.528 642.2C343.67 642.334 343.741 642.494 343.741 642.682C343.741 642.869 343.67 643.03 343.528 643.163C343.389 643.297 343.222 643.364 343.026 643.364ZM346.368 642.273V651H345.362V642.273H346.368ZM350.954 651.136C350.323 651.136 349.779 650.997 349.322 650.719C348.867 650.438 348.516 650.045 348.269 649.543C348.025 649.037 347.903 648.449 347.903 647.778C347.903 647.108 348.025 646.517 348.269 646.006C348.516 645.491 348.86 645.091 349.3 644.804C349.744 644.514 350.261 644.369 350.852 644.369C351.192 644.369 351.529 644.426 351.862 644.54C352.194 644.653 352.496 644.838 352.769 645.094C353.042 645.347 353.259 645.682 353.421 646.099C353.583 646.517 353.664 647.031 353.664 647.642V648.068H348.619V647.199H352.641C352.641 646.83 352.567 646.5 352.42 646.21C352.275 645.92 352.067 645.692 351.798 645.524C351.531 645.357 351.215 645.273 350.852 645.273C350.451 645.273 350.104 645.372 349.812 645.571C349.522 645.767 349.299 646.023 349.143 646.338C348.987 646.653 348.908 646.991 348.908 647.352V647.932C348.908 648.426 348.994 648.845 349.164 649.189C349.337 649.53 349.577 649.79 349.884 649.969C350.191 650.145 350.548 650.233 350.954 650.233C351.218 650.233 351.457 650.196 351.67 650.122C351.886 650.045 352.072 649.932 352.228 649.781C352.384 649.628 352.505 649.437 352.59 649.21L353.562 649.483C353.46 649.812 353.288 650.102 353.046 650.352C352.805 650.599 352.506 650.793 352.151 650.932C351.796 651.068 351.397 651.136 350.954 651.136Z" fill="#6C7072"/>
</g>
<g clip-path="url(#clip0_6_109)">
<path d="M243 637C244.1 637 245 636.1 245 635H241C241 636.1 241.9 637 243 637ZM249 631V626C249 622.93 247.37 620.36 244.5 619.68V619C244.5 618.17 243.83 617.5 243 617.5C242.17 617.5 241.5 618.17 241.5 619V619.68C238.64 620.36 237 622.92 237 626V631L235 633V634H251V633L249 631ZM247 632H239V626C239 623.52 240.51 621.5 243 621.5C245.49 621.5 247 623.52 247 626V632Z" fill="#6B7280"/>
</g>
<g clip-path="url(#clip1_6_109)">
<path d="M336 615C330.48 615 326 619.48 326 625C326 630.52 330.48 635 336 635C341.52 635 346 630.52 346 625C346 619.48 341.52 615 336 615ZM331.07 631.28C331.5 630.38 334.12 629.5 336 629.5C337.88 629.5 340.51 630.38 340.93 631.28C339.57 632.36 337.86 633 336 633C334.14 633 332.43 632.36 331.07 631.28ZM342.36 629.83C340.93 628.09 337.46 627.5 336 627.5C334.54 627.5 331.07 628.09 329.64 629.83C328.62 628.49 328 626.82 328 625C328 620.59 331.59 617 336 617C340.41 617 344 620.59 344 625C344 626.82 343.38 628.49 342.36 629.83ZM336 619C334.06 619 332.5 620.56 332.5 622.5C332.5 624.44 334.06 626 336 626C337.94 626 339.5 624.44 339.5 622.5C339.5 620.56 337.94 619 336 619ZM336 624C335.17 624 334.5 623.33 334.5 622.5C334.5 621.67 335.17 621 336 621C336.83 621 337.5 621.67 337.5 622.5C337.5 623.33 336.83 624 336 624Z" fill="#6B7280"/>
</g>
<defs>
<filter id="filter0_i_6_109" x="243" y="288" width="48" height="66" filterUnits="userSpaceOnUse" color-interpolation-filters="sRGB">
<feFlood flood-opacity="0" result="BackgroundImageFix"/>
<feBlend mode="normal" in="SourceGraphic" in2="BackgroundImageFix" result="shape"/>
<feColorMatrix in="SourceAlpha" type="matrix" values="0 0 0 0 0 0 0 0 0 0 0 0 0 0 0 0 0 0 127 0" result="hardAlpha"/>
<feOffset dy="2"/>
<feGaussianBlur stdDeviation="2"/>
<feComposite in2="hardAlpha" operator="arithmetic" k2="-1" k3="1"/>
<feColorMatrix type="matrix" values="0 0 0 0 0 0 0 0 0 0 0 0 0 0 0 0 0 0 0.06 0"/>
<feBlend mode="normal" in2="shape" result="effect1_innerShadow_6_109"/>
</filter>
<filter id="filter1_i_6_109" x="243" y="216" width="48" height="66" filterUnits="userSpaceOnUse" color-interpolation-filters="sRGB">
<feFlood flood-opacity="0" result="BackgroundImageFix"/>
<feBlend mode="normal" in="SourceGraphic" in2="BackgroundImageFix" result="shape"/>
<feColorMatrix in="SourceAlpha" type="matrix" values="0 0 0 0 0 0 0 0 0 0 0 0 0 0 0 0 0 0 127 0" result="hardAlpha"/>
<feOffset dy="2"/>
<feGaussianBlur stdDeviation="2"/>
<feComposite in2="hardAlpha" operator="arithmetic" k2="-1" k3="1"/>
<feColorMatrix type="matrix" values="0 0 0 0 0 0 0 0 0 0 0 0 0 0 0 0 0 0 0.06 0"/>
<feBlend mode="normal" in2="shape" result="effect1_innerShadow_6_109"/>
</filter>
<filter id="filter2_i_6_109" x="243" y="144" width="48" height="66" filterUnits="userSpaceOnUse" color-interpolation-filters="sRGB">
<feFlood flood-opacity="0" result="BackgroundImageFix"/>
<feBlend mode="normal" in="SourceGraphic" in2="BackgroundImageFix" result="shape"/>
<feColorMatrix in="SourceAlpha" type="matrix" values="0 0 0 0 0 0 0 0 0 0 0 0 0 0 0 0 0 0 127 0" result="hardAlpha"/>
<feOffset dy="2"/>
<feGaussianBlur stdDeviation="2"/>
<feComposite in2="hardAlpha" operator="arithmetic" k2="-1" k3="1"/>
<feColorMatrix type="matrix" values="0 0 0 0 0 0 0 0 0 0 0 0 0 0 0 0 0 0 0.06 0"/>
<feBlend mode="normal" in2="shape" result="effect1_innerShadow_6_109"/>
</filter>
<filter id="filter3_i_6_109" x="243" y="72.0003" width="48" height="66" filterUnits="userSpaceOnUse" color-interpolation-filters="sRGB">
<feFlood flood-opacity="0" result="BackgroundImageFix"/>
<feBlend mode="normal" in="SourceGraphic" in2="BackgroundImageFix" result="shape"/>
<feColorMatrix in="SourceAlpha" type="matrix" values="0 0 0 0 0 0 0 0 0 0 0 0 0 0 0 0 0 0 127 0" result="hardAlpha"/>
<feOffset dy="2"/>
<feGaussianBlur stdDeviation="2"/>
<feComposite in2="hardAlpha" operator="arithmetic" k2="-1" k3="1"/>
<feColorMatrix type="matrix" values="0 0 0 0 0 0 0 0 0 0 0 0 0 0 0 0 0 0 0.06 0"/>
<feBlend mode="normal" in2="shape" result="effect1_innerShadow_6_109"/>
</filter>
<filter id="filter4_i_6_109" x="243" y="0.000335693" width="48" height="66" filterUnits="userSpaceOnUse" color-interpolation-filters="sRGB">
<feFlood flood-opacity="0" result="BackgroundImageFix"/>
<feBlend mode="normal" in="SourceGraphic" in2="BackgroundImageFix" result="shape"/>
<feColorMatrix in="SourceAlpha" type="matrix" values="0 0 0 0 0 0 0 0 0 0 0 0 0 0 0 0 0 0 127 0" result="hardAlpha"/>
<feOffset dy="2"/>
<feGaussianBlur stdDeviation="2"/>
<feComposite in2="hardAlpha" operator="arithmetic" k2="-1" k3="1"/>
<feColorMatrix type="matrix" values="0 0 0 0 0 0 0 0 0 0 0 0 0 0 0 0 0 0 0.06 0"/>
<feBlend mode="normal" in2="shape" result="effect1_innerShadow_6_109"/>
</filter>
<filter id="filter5_i_6_109" x="317" y="288" width="48" height="66" filterUnits="userSpaceOnUse" color-interpolation-filters="sRGB">
<feFlood flood-opacity="0" result="BackgroundImageFix"/>
<feBlend mode="normal" in="SourceGraphic" in2="BackgroundImageFix" result="shape"/>
<feColorMatrix in="SourceAlpha" type="matrix" values="0 0 0 0 0 0 0 0 0 0 0 0 0 0 0 0 0 0 127 0" result="hardAlpha"/>
<feOffset dy="2"/>
<feGaussianBlur stdDeviation="2"/>
<feComposite in2="hardAlpha" operator="arithmetic" k2="-1" k3="1"/>
<feColorMatrix type="matrix" values="0 0 0 0 0 0 0 0 0 0 0 0 0 0 0 0 0 0 0.06 0"/>
<feBlend mode="normal" in2="shape" result="effect1_innerShadow_6_109"/>
</filter>
<filter id="filter6_i_6_109" x="317" y="216" width="48" height="66" filterUnits="userSpaceOnUse" color-interpolation-filters="sRGB">
<feFlood flood-opacity="0" result="BackgroundImageFix"/>
<feBlend mode="normal" in="SourceGraphic" in2="BackgroundImageFix" result="shape"/>
<feColorMatrix in="SourceAlpha" type="matrix" values="0 0 0 0 0 0 0 0 0 0 0 0 0 0 0 0 0 0 127 0" result="hardAlpha"/>
<feOffset dy="2"/>
<feGaussianBlur stdDeviation="2"/>
<feComposite in2="hardAlpha" operator="arithmetic" k2="-1" k3="1"/>
<feColorMatrix type="matrix" values="0 0 0 0 0 0 0 0 0 0 0 0 0 0 0 0 0 0 0.06 0"/>
<feBlend mode="normal" in2="shape" result="effect1_innerShadow_6_109"/>
</filter>
<filter id="filter7_i_6_109" x="317" y="144" width="48" height="66" filterUnits="userSpaceOnUse" color-interpolation-filters="sRGB">
<feFlood flood-opacity="0" result="BackgroundImageFix"/>
<feBlend mode="normal" in="SourceGraphic" in2="BackgroundImageFix" result="shape"/>
<feColorMatrix in="SourceAlpha" type="matrix" values="0 0 0 0 0 0 0 0 0 0 0 0 0 0 0 0 0 0 127 0" result="hardAlpha"/>
<feOffset dy="2"/>
<feGaussianBlur stdDeviation="2"/>
<feComposite in2="hardAlpha" operator="arithmetic" k2="-1" k3="1"/>
<feColorMatrix type="matrix" values="0 0 0 0 0 0 0 0 0 0 0 0 0 0 0 0 0 0 0.06 0"/>
<feBlend mode="normal" in2="shape" result="effect1_innerShadow_6_109"/>
</filter>
<filter id="filter8_i_6_109" x="317" y="72" width="48" height="66" filterUnits="userSpaceOnUse" color-interpolation-filters="sRGB">
<feFlood flood-opacity="0" result="BackgroundImageFix"/>
<feBlend mode="normal" in="SourceGraphic" in2="BackgroundImageFix" result="shape"/>
<feColorMatrix in="SourceAlpha" type="matrix" values="0 0 0 0 0 0 0 0 0 0 0 0 0 0 0 0 0 0 127 0" result="hardAlpha"/>
<feOffset dy="2"/>
<feGaussianBlur stdDeviation="2"/>
<feComposite in2="hardAlpha" operator="arithmetic" k2="-1" k3="1"/>
<feColorMatrix type="matrix" values="0 0 0 0 0 0 0 0 0 0 0 0 0 0 0 0 0 0 0.06 0"/>
<feBlend mode="normal" in2="shape" result="effect1_innerShadow_6_109"/>
</filter>
<filter id="filter9_i_6_109" x="317" y="0" width="48" height="66" filterUnits="userSpaceOnUse" color-interpolation-filters="sRGB">
<feFlood flood-opacity="0" result="BackgroundImageFix"/>
<feBlend mode="normal" in="SourceGraphic" in2="BackgroundImageFix" result="shape"/>
<feColorMatrix in="SourceAlpha" type="matrix" values="0 0 0 0 0 0 0 0 0 0 0 0 0 0 0 0 0 0 127 0" result="hardAlpha"/>
<feOffset dy="2"/>
<feGaussianBlur stdDeviation="2"/>
<feComposite in2="hardAlpha" operator="arithmetic" k2="-1" k3="1"/>
<feColorMatrix type="matrix" values="0 0 0 0 0 0 0 0 0 0 0 0 0 0 0 0 0 0 0.06 0"/>
<feBlend mode="normal" in2="shape" result="effect1_innerShadow_6_109"/>
</filter>
<filter id="filter10_dd_6_109" x="0" y="597" width="391" height="72" filterUnits="userSpaceOnUse" color-interpolation-filters="sRGB">
<feFlood flood-opacity="0" result="BackgroundImageFix"/>
<feColorMatrix in="SourceAlpha" type="matrix" values="0 0 0 0 0 0 0 0 0 0 0 0 0 0 0 0 0 0 127 0" result="hardAlpha"/>
<feOffset/>
<feGaussianBlur stdDeviation="4"/>
<feColorMatrix type="matrix" values="0 0 0 0 0.0784314 0 0 0 0 0.0784314 0 0 0 0 0.0784314 0 0 0 0.08 0"/>
<feBlend mode="normal" in2="BackgroundImageFix" result="effect1_dropShadow_6_109"/>
<feColorMatrix in="SourceAlpha" type="matrix" values="0 0 0 0 0 0 0 0 0 0 0 0 0 0 0 0 0 0 127 0" result="hardAlpha"/>
<feOffset/>
<feGaussianBlur stdDeviation="0.5"/>
<feColorMatrix type="matrix" values="0 0 0 0 0.0784314 0 0 0 0 0.0784314 0 0 0 0 0.0784314 0 0 0 0.04 0"/>
<feBlend mode="normal" in2="effect1_dropShadow_6_109" result="effect2_dropShadow_6_109"/>
<feBlend mode="normal" in="SourceGraphic" in2="effect2_dropShadow_6_109" result="shape"/>
</filter>
<clipPath id="clip0_6_109">
<rect width="24" height="24" fill="white" transform="translate(231 615)"/>
</clipPath>
<clipPath id="clip1_6_109">
<rect width="24" height="24" fill="white" transform="translate(324 613)"/>
</clipPath>
</defs>
</svg>
